<?xml version="1.0" encoding="utf-8"?>
<!-- Generator: Adobe Illustrator 21.1.0, SVG Export Plug-In . SVG Version: 6.00 Build 0)  -->
<svg version="1.1" xmlns="http://www.w3.org/2000/svg" xmlns:xlink="http://www.w3.org/1999/xlink" x="0px" y="0px"
	 viewBox="0 0 236.9 128.4" style="enable-background:new 0 0 236.9 128.4;" xml:space="preserve">
<style type="text/css">
	.st0{fill:#B4EBF7;}
	.st1{fill:#FFFFFF;}
	.st2{fill:#E0632F;}
	.st3{fill:#485059;}
	.st4{fill:#363C43;}
	.st5{fill:#3B4652;}
	.st6{fill:#717D8A;}
	.st7{fill:#4E5D6D;}
	.st8{fill:#959EA7;}
	.st9{opacity:0.3;}
	.st10{fill:#231F20;}
	.st11{fill:#B8BEC5;}
	.st12{fill:#414042;}
	.st13{fill:#F1F2F2;}
	.st14{fill:#BCBEC0;}
	.st15{fill:#D2F3FA;}
	.st16{fill:#E6E7E8;}
	.st17{fill:#939598;}
	.st18{fill:#FBD451;}
	.st19{fill:#FBDA73;}
	.st20{fill:#E68259;}
	.st21{fill:#6D737A;}
	.st22{opacity:0.1;}
	.st23{fill:#53667F;}
	.st24{fill:#FDE597;}
	.st25{fill:#FCDD74;}
	.st26{fill:#D1D3D4;}
	.st27{fill:#3E4D5F;}
	.st28{fill:#BAC2CC;}
	.st29{fill:#DDE0E5;}
	.st30{fill:#A84A23;}
	.st31{fill:#8CD0DE;}
	.st32{fill:#F4F6F9;}
	.st33{fill:#758599;}
	.st34{fill:#586D87;}
	.st35{fill:#91969B;}
	.st36{fill:#B6B9BD;}
	.st37{fill:#FDE9AB;}
	.st38{fill:#C3EFF9;}
	.st39{fill:#ECA182;}
	.st40{opacity:0.2;}
	.st41{fill:#98A3B2;}
	.st42{fill:#FDEEB9;}
	.st43{fill:#A7A9AC;}
	.st44{fill:#FEF6DC;}
	.st45{fill:#F3C1AC;}
	.st46{fill:#808285;}
	.st47{fill:#7C7F83;}
	.st48{fill:#252930;}
	.st49{fill:#F15931;}
	.st50{fill:#F47933;}
	.st51{fill:#F7F9F8;}
	.st52{fill:#ECEDED;}
	.st53{fill:#007DC6;}
	.st54{fill:#278FCE;}
	.st55{fill:#E7E8E8;}
	.st56{fill:#DDDEDE;}
	.st57{fill:#FBB730;}
	.st58{opacity:0.15;}
	.st59{fill:#D8D8D8;}
	.st60{fill:#FBBB3C;}
	.st61{fill:#F9F9F9;}
	.st62{fill:#E03B9A;}
</style>
<g id="Brand_d">
</g>
<g id="Graphic_d">
	<g>
		<g id="XMLID_1042_">
			<path class="st26" d="M82.8,11.7c-1.4,0.4-1.8,0.8-2.2,2.2c-0.4-1.4-0.8-1.8-2.2-2.2c1.4-0.4,1.8-0.8,2.2-2.2
				C81,10.9,81.4,11.3,82.8,11.7z"/>
		</g>
		<g id="XMLID_1041_">
			<path class="st26" d="M46.3,65.2c-1.2,0.4-1.5,0.6-1.8,1.8c-0.4-1.2-0.6-1.5-1.8-1.8c1.2-0.4,1.5-0.6,1.8-1.8
				C44.8,64.5,45.1,64.8,46.3,65.2z"/>
		</g>
		<g id="XMLID_1040_">
			<path class="st26" d="M164.6,19c-1.2,0.4-1.5,0.6-1.8,1.8c-0.4-1.2-0.6-1.5-1.8-1.8c1.2-0.4,1.5-0.6,1.8-1.8
				C163.1,18.4,163.4,18.7,164.6,19z"/>
		</g>
		<g id="XMLID_1039_">
			<path class="st26" d="M134.1,12.3c-1.5,0.5-1.9,0.8-2.4,2.4c-0.5-1.5-0.8-1.9-2.4-2.4c1.5-0.5,1.9-0.8,2.4-2.4
				C132.2,11.5,132.6,11.9,134.1,12.3z"/>
		</g>
		<g id="XMLID_1038_">
			<path class="st26" d="M212,90.2c-1.2,0.4-1.5,0.6-1.8,1.8c-0.4-1.2-0.6-1.5-1.8-1.8c1.2-0.4,1.5-0.6,1.8-1.8
				C210.5,89.6,210.8,89.8,212,90.2z"/>
		</g>
		<g id="XMLID_1037_">
			<path class="st26" d="M210.8,79.4c-1.6,0.5-2,0.9-2.5,2.5c-0.5-1.6-0.9-2-2.5-2.5c1.6-0.5,2-0.9,2.5-2.5
				C208.8,78.5,209.2,78.9,210.8,79.4z"/>
		</g>
		<g id="XMLID_1036_">
			<path class="st26" d="M229.6,80c-2.2,0.6-2.7,1.2-3.3,3.3c-0.6-2.2-1.2-2.7-3.3-3.3c2.2-0.6,2.7-1.2,3.3-3.3
				C226.9,78.9,227.4,79.4,229.6,80z"/>
		</g>
		<g id="XMLID_1035_">
			<path class="st26" d="M52.4,55.9c-1.5,0.4-1.8,0.8-2.3,2.3c-0.4-1.5-0.8-1.8-2.3-2.3c1.5-0.4,1.8-0.8,2.3-2.3
				C50.5,55.1,50.9,55.5,52.4,55.9z"/>
		</g>
		<g id="XMLID_1034_">
			<path class="st26" d="M39.2,52.3c-1.8,0.5-2.3,1-2.8,2.8c-0.5-1.8-1-2.3-2.8-2.8c1.8-0.5,2.3-1,2.8-2.8
				C36.9,51.3,37.4,51.7,39.2,52.3z"/>
		</g>
		<g id="XMLID_1007_">
			<g id="XMLID_1033_">
				<path class="st23" d="M25.6,106.9H13.4l1.8-4c0.3-0.6,0.9-1,1.5-1h5.5c0.6,0,1.2,0.4,1.5,1L25.6,106.9z"/>
			</g>
			<g id="XMLID_1026_">
				<g id="XMLID_1032_">
					<path class="st23" d="M30.4,106.7h-4.2c-0.3,0-0.6-0.3-0.6-0.6v-0.3c0-0.3,0.3-0.6,0.6-0.6h4.2c0.3,0,0.6,0.3,0.6,0.6v0.3
						C30.9,106.5,30.7,106.7,30.4,106.7z"/>
				</g>
				<g id="XMLID_1031_">
					<rect x="25.9" y="105.3" class="st33" width="0.5" height="1.5"/>
				</g>
				<g id="XMLID_1030_">
					<rect x="26.9" y="105.3" class="st33" width="0.5" height="1.5"/>
				</g>
				<g id="XMLID_1029_">
					<rect x="27.9" y="105.3" class="st33" width="0.5" height="1.5"/>
				</g>
				<g id="XMLID_1028_">
					<rect x="29" y="105.3" class="st33" width="0.5" height="1.5"/>
				</g>
				<g id="XMLID_1027_">
					<rect x="30" y="105.3" class="st33" width="0.5" height="1.5"/>
				</g>
			</g>
			<g id="XMLID_1025_">
				<path class="st23" d="M6.5,107.1H5.2c-0.5,0-0.9-0.4-0.9-0.9l0,0c0-0.5,0.4-0.9,0.9-0.9h1.3c0.5,0,0.9,0.4,0.9,0.9l0,0
					C7.4,106.7,7,107.1,6.5,107.1z"/>
			</g>
			<g id="XMLID_1024_">
				<path class="st23" d="M10.4,107.1H9.1c-0.5,0-0.9-0.4-0.9-0.9l0,0c0-0.5,0.4-0.9,0.9-0.9h1.3c0.5,0,0.9,0.4,0.9,0.9l0,0
					C11.4,106.7,10.9,107.1,10.4,107.1z"/>
			</g>
			<g id="XMLID_1023_" class="st9">
				<polygon class="st10" points="13.4,106.9 25.6,106.9 25,105.6 14,105.6 				"/>
			</g>
			<g id="XMLID_1022_">
				<path class="st23" d="M32.6,127.9H3c-0.8,0-1.4-0.6-1.4-1.4v-19.2c0-0.8,0.6-1.4,1.4-1.4h29.5c0.8,0,1.4,0.6,1.4,1.4v19.2
					C33.9,127.3,33.3,127.9,32.6,127.9z"/>
			</g>
			<g id="XMLID_1021_">
				<path class="st34" d="M2.9,106c-0.7,0-1.2,0.5-1.2,1.2v19.5c0,0.7,0.5,1.2,1.2,1.2h9.1c0.2-0.2,0.3-0.5,0.3-0.8V106H2.9z"/>
			</g>
			<g id="XMLID_1020_">
				<path class="st33" d="M2.9,106c-0.7,0-1.2,0.5-1.2,1.2v19.5c0,0.7,0.5,1.2,1.2,1.2H9c0.2-0.2,0.3-0.5,0.3-0.8V106H2.9z"/>
			</g>
			<g id="XMLID_1019_">
				<rect x="16.6" y="103.3" class="st16" width="5.7" height="1.5"/>
			</g>
			<g id="XMLID_1014_">
				<polygon class="st1" points="16.8,104.9 19,104.9 20.5,103.3 18.4,103.3 				"/>
			</g>
			<g id="XMLID_1013_">
				<polygon class="st1" points="20.4,104.9 21.9,103.3 20.8,103.3 19.3,104.9 				"/>
			</g>
			<g id="XMLID_1012_">
				<circle class="st27" cx="19.5" cy="116.9" r="9.6"/>
			</g>
			<g id="XMLID_1011_">
				<circle class="st23" cx="19.5" cy="116.9" r="8.6"/>
			</g>
			<g id="XMLID_1010_">
				<circle class="st0" cx="19.5" cy="116.9" r="7.1"/>
			</g>
			<g id="XMLID_1009_">
				<circle class="st23" cx="19.5" cy="116.9" r="1.7"/>
			</g>
			<g id="XMLID_1008_">
				
					<ellipse transform="matrix(0.4881 -0.8728 0.8728 0.4881 -89.7984 77.4755)" class="st1" cx="21.2" cy="115.3" rx="1.1" ry="2.2"/>
			</g>
		</g>
		<g id="XMLID_942_">
			<g id="XMLID_1006_">
				<polygon class="st16" points="132.9,123.9 85.3,123.9 91.4,106.2 127,106.2 				"/>
			</g>
			<g id="XMLID_1005_">
				<polygon class="st14" points="86.2,121.6 131.1,118.7 127.3,107.2 91,107.2 				"/>
			</g>
			<g id="XMLID_1004_">
				<path class="st3" d="M164.4,48.1c0-1-0.8-1.7-1.7-1.7h-107c-1,0-1.7,0.8-1.7,1.7v55.7c0,1,0.8,1.7,1.7,1.7h107
					c1,0,1.7-0.8,1.7-1.7V48.1z"/>
			</g>
			<g id="XMLID_1003_">
				<path class="st16" d="M164.4,102.4v7.3c0,2.6-2.1,4.7-4.7,4.7H58.5c-2.6,0-4.7-2.1-4.7-4.7v-7.3H164.4z"/>
			</g>
			<g id="XMLID_1002_">
				<rect x="58" y="50.4" class="st13" width="102.3" height="48.1"/>
			</g>
			<g id="XMLID_1001_">
				<rect x="83.2" y="123.9" class="st26" width="51.6" height="4"/>
			</g>
			<g id="XMLID_969_">
				<g id="XMLID_1000_">
					<rect x="59.3" y="50.8" class="st7" width="10.2" height="45.3"/>
				</g>
				<g id="XMLID_999_">
					<rect x="59.3" y="50.8" class="st23" width="10.2" height="3.6"/>
				</g>
				<g id="XMLID_998_">
					<rect x="62.2" y="59.4" class="st21" width="4.6" height="4.6"/>
				</g>
				<g id="XMLID_997_">
					<rect x="62.2" y="66.3" class="st21" width="4.6" height="4.6"/>
				</g>
				<g id="XMLID_996_">
					<rect x="62.2" y="73.2" class="st21" width="4.6" height="4.6"/>
				</g>
				<g id="XMLID_971_">
					<rect x="62.2" y="80.1" class="st21" width="4.6" height="4.6"/>
				</g>
				<g id="XMLID_970_">
					<rect x="62.2" y="87" class="st21" width="4.6" height="4.6"/>
				</g>
			</g>
			<g id="XMLID_968_">
				<rect x="78" y="59.8" class="st1" width="57.6" height="34.8"/>
			</g>
			<g id="XMLID_948_">
				<g id="XMLID_967_">
					<rect x="70.2" y="50.8" class="st7" width="69" height="5.3"/>
				</g>
				<g id="XMLID_966_">
					<rect x="70.2" y="50.8" class="st18" width="4.4" height="5.3"/>
				</g>
				<g id="XMLID_954_">
					<rect x="76.6" y="52.7" class="st21" width="15" height="1.5"/>
				</g>
				<g id="XMLID_953_">
					<rect x="92.8" y="52.7" class="st21" width="10.5" height="1.5"/>
				</g>
				<g id="XMLID_951_">
					<rect x="105.2" y="52.7" class="st21" width="10.5" height="1.5"/>
				</g>
				<g id="XMLID_950_">
					<rect x="124.1" y="52.7" class="st21" width="5.9" height="1.5"/>
				</g>
				<g id="XMLID_949_">
					<rect x="132.1" y="52.7" class="st21" width="5.9" height="1.5"/>
				</g>
			</g>
			<g id="XMLID_947_">
				<rect x="139.9" y="50.8" class="st21" width="18.7" height="9.1"/>
			</g>
			<g id="XMLID_946_">
				<rect x="139.9" y="59.8" class="st3" width="18.7" height="9.1"/>
			</g>
			<g id="XMLID_945_">
				<rect x="139.9" y="68.9" class="st4" width="18.7" height="9.1"/>
			</g>
			<g id="XMLID_944_">
				<rect x="139.9" y="77.9" class="st35" width="18.7" height="9.1"/>
			</g>
			<g id="XMLID_943_">
				<rect x="139.9" y="87" class="st36" width="18.7" height="9.1"/>
			</g>
		</g>
		<g class="st9">
			<path class="st10" d="M62.6,103.4c1.1,0,2-0.9,2-2v-6.2v-0.5v-0.9v-1.2v-0.9v-1.2v-0.4v-0.5v-0.3V76.1h-0.7h-0.7h-0.7h-0.2h-0.5
				H61h-0.7h-0.7h-0.7h-0.7h-0.7h-0.7H56h-0.7h-0.7h-0.7v26.3v1.4v5.9c0,2.6,2.1,4.7,4.7,4.7h0v-6.9
				C58.5,105.2,60.4,103.4,62.6,103.4z"/>
		</g>
		<g class="st9">
			<path class="st10" d="M33.9,126.6v-19.3c0-0.7-0.6-1.3-1.3-1.3h-1.7v-0.2c0-0.2-0.2-0.5-0.4-0.5v0h-0.2H30h-0.5H29h-0.5h-0.5
				h-0.5h-0.5h-0.5h-0.3h-0.3v0.1c-0.2,0.1-0.3,0.3-0.3,0.5v0.2h-0.4l-1.4-3c-0.3-0.6-0.8-0.9-1.5-1h-2.8v22.1h-1.7h-1h-0.1
				l-0.9,0.4l-2.8,1v0l-1.3,0.5l1.3,0.5v0l2.8,1l0.9,0.4h0.1h1h14.8C33.3,127.9,33.9,127.3,33.9,126.6z"/>
		</g>
		<g id="XMLID_730_">
			<g id="XMLID_911_">
				<g id="XMLID_938_">
					<path class="st0" d="M43.6,95.1v6.2c0,1.1,0.9,2,2,2c2.2,0,4,1.8,4,4v16.7c0,2.2,1.9,3.9,4.1,3.7c1.9-0.2,3.3-2,3.3-3.9v-16.5
						c0-2.2,1.8-4,4-4c1.1,0,2-0.9,2-2v-6.2H43.6z M52.1,123.9c0-0.7,0.6-1.3,1.3-1.3c0.7,0,1.3,0.6,1.3,1.3c0,0.7-0.6,1.3-1.3,1.3
						C52.7,125.2,52.1,124.6,52.1,123.9z"/>
				</g>
				<g id="XMLID_937_">
					
						<rect x="43.6" y="76.1" transform="matrix(-1 -1.224647e-16 1.224647e-16 -1 106.7503 166.3136)" class="st19" width="19.6" height="14.1"/>
				</g>
				<g id="XMLID_935_">
					
						<rect x="62.4" y="76.1" transform="matrix(-1 -1.224647e-16 1.224647e-16 -1 125.5724 166.3136)" class="st37" width="0.7" height="14.1"/>
				</g>
				<g id="XMLID_934_">
					
						<rect x="61" y="76.1" transform="matrix(-1 -1.224647e-16 1.224647e-16 -1 122.6979 166.3136)" class="st37" width="0.7" height="14.1"/>
				</g>
				<g id="XMLID_932_">
					
						<rect x="59.5" y="76.1" transform="matrix(-1 -1.224647e-16 1.224647e-16 -1 119.8233 166.3136)" class="st37" width="0.7" height="14.1"/>
				</g>
				<g id="XMLID_931_">
					
						<rect x="58.1" y="76.1" transform="matrix(-1 -1.224647e-16 1.224647e-16 -1 116.9488 166.3136)" class="st37" width="0.7" height="14.1"/>
				</g>
				<g id="XMLID_930_">
					
						<rect x="56.7" y="76.1" transform="matrix(-1 -1.224647e-16 1.224647e-16 -1 114.0743 166.3136)" class="st37" width="0.7" height="14.1"/>
				</g>
				<g id="XMLID_929_">
					
						<rect x="55.2" y="76.1" transform="matrix(-1 -1.224647e-16 1.224647e-16 -1 111.1998 166.3136)" class="st37" width="0.7" height="14.1"/>
				</g>
				<g id="XMLID_928_">
					
						<rect x="53.8" y="76.1" transform="matrix(-1 -1.224647e-16 1.224647e-16 -1 108.3253 166.3136)" class="st37" width="0.7" height="14.1"/>
				</g>
				<g id="XMLID_927_">
					
						<rect x="52.4" y="76.1" transform="matrix(-1 -1.224647e-16 1.224647e-16 -1 105.4507 166.3136)" class="st37" width="0.7" height="14.1"/>
				</g>
				<g id="XMLID_926_">
					
						<rect x="50.9" y="76.1" transform="matrix(-1 -1.224647e-16 1.224647e-16 -1 102.5761 166.3136)" class="st37" width="0.7" height="14.1"/>
				</g>
				<g id="XMLID_925_">
					
						<rect x="49.5" y="76.1" transform="matrix(-1 -1.224647e-16 1.224647e-16 -1 99.7016 166.3136)" class="st37" width="0.7" height="14.1"/>
				</g>
				<g id="XMLID_924_">
					
						<rect x="48" y="76.1" transform="matrix(-1 -1.224647e-16 1.224647e-16 -1 96.8271 166.3136)" class="st37" width="0.7" height="14.1"/>
				</g>
				<g id="XMLID_923_">
					
						<rect x="46.6" y="76.1" transform="matrix(-1 -1.224647e-16 1.224647e-16 -1 93.9524 166.3136)" class="st37" width="0.7" height="14.1"/>
				</g>
				<g id="XMLID_922_">
					
						<rect x="45.2" y="76.1" transform="matrix(-1 -1.224647e-16 1.224647e-16 -1 91.078 166.3136)" class="st37" width="0.7" height="14.1"/>
				</g>
				<g id="XMLID_921_">
					
						<rect x="43.7" y="76.1" transform="matrix(-1 -1.224647e-16 1.224647e-16 -1 88.2034 166.3136)" class="st37" width="0.7" height="14.1"/>
				</g>
				<g id="XMLID_920_">
					
						<rect x="43.6" y="89.4" transform="matrix(-1 -1.224647e-16 1.224647e-16 -1 106.7503 184.4995)" class="st28" width="19.6" height="5.8"/>
				</g>
				<g id="XMLID_919_">
					
						<rect x="43.6" y="89.7" transform="matrix(-1 -1.224647e-16 1.224647e-16 -1 106.7503 180.2524)" class="st33" width="19.6" height="0.9"/>
				</g>
				<g id="XMLID_918_">
					
						<rect x="43.6" y="91.7" transform="matrix(-1 -1.224647e-16 1.224647e-16 -1 106.7503 184.3706)" class="st33" width="19.6" height="0.9"/>
				</g>
				<g id="XMLID_917_">
					
						<rect x="43.6" y="93.8" transform="matrix(-1 -1.224647e-16 1.224647e-16 -1 106.7503 188.4888)" class="st33" width="19.6" height="0.9"/>
				</g>
				<g id="XMLID_916_">
					<path class="st38" d="M53.4,95.1v27.5c-0.7,0-1.3,0.6-1.3,1.3c0,0.7,0.6,1.3,1.3,1.3v2.6c-2,0-3.7-1.6-3.7-3.7v-16.7
						c0-2.2-1.8-4-4-4c-1.1,0-2-0.9-2-2v-6.2H53.4z"/>
				</g>
				<g id="XMLID_915_">
					<path class="st2" d="M60.8,80.5c0,1-0.8,1.9-1.9,1.9c-1,0-1.9-0.8-1.9-1.9c0,0,0-0.5,0-1s-0.7-1-1.5-1c-0.8,0-1.5,1-1.5,2.3v3
						c0,1-0.8,1.9-1.9,1.9h-0.3c-1,0-1.9-0.8-1.9-1.9v-7.7h10.8V80.5z"/>
				</g>
				<g id="XMLID_912_">
					<g id="XMLID_914_">
						<path class="st39" d="M56.2,77.7c0.8,0,1.5,0.5,1.5,1c0,0.6,0,1,0,1c0,1,0.8,1.9,1.9,1.9c0.4,0,0.8-0.2,1.1-0.4
							c-0.3,0.7-0.9,1.2-1.7,1.2c-1,0-1.9-0.8-1.9-1.9c0,0,0-0.5,0-1s-0.7-1-1.5-1c-0.2,0-0.4,0.1-0.5,0.2
							C55.3,78.1,55.7,77.7,56.2,77.7z"/>
					</g>
					<g id="XMLID_913_">
						<path class="st39" d="M50.7,76.1V83c0,1,0.8,1.9,1.9,1.9h0.3c0.4,0,0.8-0.2,1.1-0.4c-0.3,0.7-0.9,1.2-1.7,1.2h-0.3
							c-1,0-1.9-0.8-1.9-1.9v-7.7H50.7z"/>
					</g>
				</g>
			</g>
			<g id="XMLID_874_">
				<g id="XMLID_910_">
					<rect x="32.2" y="71" class="st18" width="8.5" height="56.8"/>
				</g>
				<g id="XMLID_908_">
					<rect x="36.4" y="71" class="st19" width="5.5" height="56.8"/>
				</g>
				<g id="XMLID_907_">
					<rect x="39.4" y="126.6" class="st12" width="2.4" height="0.6"/>
				</g>
				<g id="XMLID_906_">
					<rect x="40.6" y="124" class="st12" width="1.2" height="0.6"/>
				</g>
				<g id="XMLID_905_">
					<rect x="40.6" y="121.5" class="st12" width="1.2" height="0.6"/>
				</g>
				<g id="XMLID_904_">
					<rect x="40.6" y="119" class="st12" width="1.2" height="0.6"/>
				</g>
				<g id="XMLID_893_">
					<rect x="40.6" y="116.5" class="st12" width="1.2" height="0.6"/>
				</g>
				<g id="XMLID_892_">
					<rect x="39.4" y="113.9" class="st12" width="2.4" height="0.6"/>
				</g>
				<g id="XMLID_891_">
					<rect x="40.6" y="111.4" class="st12" width="1.2" height="0.6"/>
				</g>
				<g id="XMLID_890_">
					<rect x="40.6" y="108.9" class="st12" width="1.2" height="0.6"/>
				</g>
				<g id="XMLID_889_">
					<rect x="40.6" y="106.4" class="st12" width="1.2" height="0.6"/>
				</g>
				<g id="XMLID_888_">
					<rect x="40.6" y="103.8" class="st12" width="1.2" height="0.6"/>
				</g>
				<g id="XMLID_887_">
					<rect x="39.4" y="101.3" class="st12" width="2.4" height="0.6"/>
				</g>
				<g id="XMLID_886_">
					<rect x="40.6" y="98.8" class="st12" width="1.2" height="0.6"/>
				</g>
				<g id="XMLID_885_">
					<rect x="40.6" y="96.3" class="st12" width="1.2" height="0.6"/>
				</g>
				<g id="XMLID_884_">
					<rect x="40.6" y="93.7" class="st12" width="1.2" height="0.6"/>
				</g>
				<g id="XMLID_883_">
					<rect x="40.6" y="91.2" class="st12" width="1.2" height="0.6"/>
				</g>
				<g id="XMLID_882_">
					<rect x="39.4" y="88.7" class="st12" width="2.4" height="0.6"/>
				</g>
				<g id="XMLID_881_">
					<rect x="40.6" y="86.2" class="st12" width="1.2" height="0.6"/>
				</g>
				<g id="XMLID_880_">
					<rect x="40.6" y="83.6" class="st12" width="1.2" height="0.6"/>
				</g>
				<g id="XMLID_879_">
					<rect x="40.6" y="81.1" class="st12" width="1.2" height="0.6"/>
				</g>
				<g id="XMLID_878_">
					<rect x="40.6" y="78.6" class="st12" width="1.2" height="0.6"/>
				</g>
				<g id="XMLID_877_">
					<rect x="39.4" y="76.1" class="st12" width="2.4" height="0.6"/>
				</g>
				<g id="XMLID_876_">
					<rect x="40.6" y="73.5" class="st12" width="1.2" height="0.6"/>
				</g>
				<g id="XMLID_875_">
					<rect x="40.6" y="71" class="st12" width="1.2" height="0.6"/>
				</g>
			</g>
			<g id="XMLID_873_" class="st9">
				<polygon class="st10" points="32.9,102 37,89.6 32.3,81.2 32.3,127.9 36.1,127.9 36.1,102 				"/>
			</g>
			<g id="XMLID_868_">
				<g id="XMLID_872_">
					<path class="st37" d="M28.1,104.4L28.1,104.4l3.3,0l4.9-14.9l-6.7-11.8h-1L28.4,89c0.2,0.1,1.1,0.5,1.3,0.7
						c0.8,0.8,0.9,2.2,0,3.1c-0.8,0.8-2.2,0.8-3.1,0c-0.8-0.8-0.8-2.2,0-3.1c0.2-0.2,0.8-0.6,1.1-0.7l0.3-11.3h-1L20,89.5l4.8,14.9
						L28.1,104.4z"/>
				</g>
				<g id="XMLID_871_" class="st40">
					<polygon class="st10" points="24.8,104.4 28.1,104.4 28.2,104.4 31.3,104.4 32.9,99.9 23.4,99.9 					"/>
				</g>
				<g id="XMLID_870_">
					<rect x="21" y="102" class="st39" width="14.3" height="25.9"/>
				</g>
				<g id="XMLID_869_">
					<rect x="28.1" y="102" class="st2" width="7.2" height="25.9"/>
				</g>
			</g>
			<g id="XMLID_867_" class="st9">
				<path class="st10" d="M46.1,94.7h0.6v-7.5v-0.5v-4.4h-0.4v0v-6.1h-0.4h-0.7h-0.7h-0.7h-0.1v13.2v0.3v0.5v0.4v1.2v0.9v1.2v0.9
					v0.5v0v6.2c0,1.1,0.9,2,2,2c0.2,0,0.3,0,0.5,0V94.7z"/>
			</g>
			<g id="XMLID_866_" class="st9">
				<polygon class="st10" points="41.9,126.6 41.9,124.7 41.9,124 41.9,122.1 41.9,121.5 41.9,119.6 41.9,119 41.9,117.1 
					41.9,116.5 41.9,114.6 41.9,113.9 41.9,112 41.9,111.4 41.9,109.5 41.9,108.9 41.9,107 41.9,106.4 41.9,104.5 41.9,103.8 
					41.9,101.9 41.9,101.3 41.9,99.4 41.9,98.8 41.9,96.9 41.9,96.3 41.9,94.4 41.9,93.7 41.9,91.8 41.9,91.2 41.9,89.3 41.9,88.7 
					41.9,86.8 41.9,86.2 41.9,84.3 41.9,83.6 41.9,81.7 41.9,81.1 41.9,79.2 41.9,78.6 41.9,76.7 41.9,76.1 41.9,74.2 41.9,73.5 
					41.9,71.6 41.9,71 41.9,71 40.6,71 40.6,71 40.6,71 40.3,71 40.3,82.2 40.3,82.2 39.4,82.2 39.4,86.6 39.4,87.2 39.4,94.7 
					40.3,94.7 40.3,127.9 40.6,127.9 41.9,127.9 41.9,127.2 				"/>
			</g>
			<g id="XMLID_856_">
				<g id="XMLID_865_">
					<rect x="41.1" y="94.1" class="st41" width="4.3" height="33.8"/>
				</g>
				<g id="XMLID_864_">
					<rect x="43.2" y="94.1" class="st33" width="2.1" height="33.8"/>
				</g>
				<g id="XMLID_863_">
					<rect x="40.2" y="86.6" class="st23" width="5.8" height="8"/>
				</g>
				<g id="XMLID_862_">
					<rect x="40.2" y="86.6" class="st33" width="3.2" height="8"/>
				</g>
				<g id="XMLID_861_">
					<rect x="40.2" y="86.6" class="st29" width="5.8" height="0.5"/>
				</g>
				<g id="XMLID_860_">
					<rect x="40.2" y="82.2" class="st33" width="5.8" height="4.4"/>
				</g>
				<g id="XMLID_859_">
					<polygon class="st26" points="45.6,73.1 41.1,69.2 41.1,82.2 45.6,82.2 					"/>
				</g>
				<g id="XMLID_858_">
					<polygon class="st13" points="41.1,70.6 41.1,82.2 45.6,82.2 45.6,74.5 					"/>
				</g>
				<g id="XMLID_857_">
					<polygon class="st16" points="43.3,82.2 45.6,82.2 45.6,74.5 43.3,72.6 					"/>
				</g>
			</g>
			<g id="XMLID_833_">
				<g id="XMLID_855_">
					<polygon class="st13" points="18.3,124.1 13.2,126 18.3,127.9 19.2,127.9 19.2,124.1 					"/>
				</g>
				<g id="XMLID_854_">
					<polygon class="st3" points="14.5,125.5 13.2,126 14.5,126.5 					"/>
				</g>
				<g id="XMLID_850_">
					<polygon class="st18" points="62.7,126.7 62.7,127.9 18.2,127.9 16.6,127.3 18.2,126.7 					"/>
				</g>
				<g id="XMLID_849_">
					<polygon class="st25" points="62.7,125.4 62.7,126.7 18.2,126.7 16.6,126 18.2,125.4 					"/>
				</g>
				<g id="XMLID_848_">
					<polygon class="st42" points="62.7,124.1 62.7,125.4 18.2,125.4 16.6,124.8 18.2,124.1 					"/>
				</g>
				<g id="XMLID_847_">
					
						<rect x="64.3" y="122.5" transform="matrix(6.123234e-17 -1 1 6.123234e-17 -59.834 192.205)" class="st20" width="3.8" height="7"/>
				</g>
				<g id="XMLID_842_">
					
						<rect x="65.2" y="123.4" transform="matrix(6.123234e-17 -1 1 6.123234e-17 -60.7832 193.1543)" class="st2" width="1.9" height="7"/>
				</g>
			</g>
		</g>
		<g>
			<g class="st9">
				<path class="st10" d="M91.2,80l3.4-3.4c0.4-0.4,0.4-1,0-1.4L94,74.5c-0.4-0.4-1-0.4-1.4,0l-3.4,3.4L89,78.1l-0.2,0.2l-0.7-0.7
					c-0.3-0.3-0.9-0.3-1.3,0c-0.3,0.3-0.3,0.9,0,1.3l0.5,0.5L84.8,82l0,0l-0.2,0.2L81.8,85l0,0l-0.1,0.1l-1.1,1.1l0,0L79.8,87
					l-0.2,0.2l0,0l-0.8,0.8l0,0l-0.2,0.2L77.8,89l-0.1,0.1l-0.8,0.8l-0.2,0.2l0,0l-0.8,0.8l0,0l-0.2,0.2l-0.8,0.8l-0.2,0.2L74,92.8
					c-0.1,0.1-0.1,0.3,0,0.4l0.4,0.4l-1,1c-0.1,0.1-0.1,0.3,0,0.4l0.8,0.8c0.1,0.1,0.3,0.1,0.4,0l1-1l0.4,0.4c0.1,0.1,0.3,0.1,0.4,0
					l13.4-13.4l0.5,0.5c0.3,0.3,0.9,0.3,1.3,0c0.3-0.3,0.3-0.9,0-1.3l-0.7-0.7l0.2-0.2L91.2,80z"/>
			</g>
			<g class="st9">
				<path class="st10" d="M74.8,97.6h-0.1c-0.7-0.9-1.4-1.7-1.4-1.7s-0.8,0.8-1.4,1.7h-18v5.3v1.4v5.9c0,2.6,2.1,4.7,4.7,4.7h30.1
					l-1,2.9l-2.3,6.7h-2.1v4h10.9V97.6H74.8z"/>
			</g>
		</g>
		<g class="st9">
			<path class="st10" d="M69.7,124.1h-7h0h-5.6c0-0.1,0-0.1,0-0.2v-16.5c0-2.2,1.8-4,4-4c1.1,0,2-0.9,2-2v-4.2H38.5v30.8h24.2h0h7
				V126V124.1z M49.7,124.1h-4.3v-20.8c0.1,0,0.2,0,0.3,0c2.2,0,4,1.8,4,4V124.1z M54.6,124.1h-2.5c0-0.1,0-0.1,0-0.2
				c0-0.7,0.6-1.3,1.3-1.3s1.3,0.6,1.3,1.3C54.7,124,54.6,124,54.6,124.1z"/>
		</g>
		<g id="XMLID_525_">
			<g id="XMLID_710_">
				<rect x="39.9" y="97.6" class="st1" width="52.7" height="30.8"/>
			</g>
			<g id="XMLID_705_">
				<rect x="43" y="100.1" class="st0" width="46.5" height="25.9"/>
			</g>
			<g id="XMLID_689_">
				<rect x="43" y="100.1" class="st13" width="23.3" height="25.9"/>
			</g>
			<g id="XMLID_688_">
				<polygon class="st3" points="56.7,126 66.3,111.9 75.2,126 				"/>
			</g>
			<g id="XMLID_687_">
				<polygon class="st43" points="56.7,126 66.3,111.7 66.4,126 				"/>
			</g>
			<g id="XMLID_672_">
				<polygon class="st26" points="43,126 53.1,110.9 64.1,126 				"/>
			</g>
			<g id="XMLID_633_">
				<circle class="st24" cx="75.2" cy="109.7" r="4.4"/>
			</g>
			<g id="XMLID_614_">
				<circle class="st19" cx="75.2" cy="109.7" r="3.7"/>
			</g>
			<g id="XMLID_583_">
				<circle class="st18" cx="75.2" cy="109.7" r="2.5"/>
			</g>
			<g id="XMLID_570_">
				<g id="XMLID_582_">
					<path class="st26" d="M84.6,112.3c0,0.4-0.5,0.8-1.1,0.8h-6.6c-0.6,0-1.1-0.4-1.1-0.8l0,0c0-0.4,0.5-0.8,1.1-0.8h6.6
						C84.1,111.5,84.6,111.8,84.6,112.3L84.6,112.3z"/>
				</g>
				<g id="XMLID_581_">
					<circle class="st1" cx="79.8" cy="110.4" r="1.4"/>
				</g>
				<g id="XMLID_580_">
					<circle class="st26" cx="81.4" cy="111.3" r="1.3"/>
				</g>
				<g id="XMLID_579_">
					<path class="st1" d="M81.4,110c-0.3,0-0.6,0.1-0.8,0.3c-0.1,0.2-0.2,0.5-0.2,0.8c0,0.7,0.6,1.3,1.3,1.3c0.3,0,0.5-0.1,0.8-0.2
						c0.2-0.2,0.3-0.5,0.3-0.8C82.7,110.6,82.1,110,81.4,110z"/>
				</g>
				<g id="XMLID_578_">
					<circle class="st26" cx="83.7" cy="112.2" r="0.9"/>
				</g>
				<g id="XMLID_577_">
					<circle class="st26" cx="76.7" cy="112" r="1.1"/>
				</g>
				<g id="XMLID_576_">
					<path class="st1" d="M77.5,111.7c0-0.3-0.1-0.6-0.3-0.8c-0.1-0.1-0.3-0.1-0.5-0.1c-0.6,0-1.1,0.5-1.1,1.1c0,0.2,0,0.3,0.1,0.5
						c0.2,0.2,0.5,0.3,0.8,0.3C77.1,112.8,77.5,112.3,77.5,111.7z"/>
				</g>
				<g id="XMLID_575_">
					<circle class="st26" cx="78" cy="111.5" r="1.3"/>
				</g>
				<g id="XMLID_574_">
					<path class="st1" d="M78,110.2c-0.7,0-1.3,0.6-1.3,1.3c0,0.3,0.1,0.5,0.2,0.7c0.2,0.2,0.5,0.3,0.8,0.3c0.7,0,1.3-0.6,1.3-1.3
						c0-0.3-0.1-0.6-0.3-0.8C78.5,110.3,78.2,110.2,78,110.2z"/>
				</g>
				<g id="XMLID_573_">
					<circle class="st26" cx="83" cy="111.3" r="0.9"/>
				</g>
				<g id="XMLID_572_">
					<path class="st1" d="M83,112.1c0.5,0,0.9-0.4,0.9-0.8c0-0.5-0.4-0.8-0.9-0.8c-0.4,0-0.8,0.3-0.9,0.7c0,0,0,0,0,0.1
						C82.1,111.7,82.5,112.1,83,112.1z"/>
				</g>
				<g id="XMLID_571_">
					<path class="st1" d="M83.7,111.3c-0.4,0-0.8,0.3-0.9,0.8c0,0.4,0.4,0.8,0.9,0.8c0.4,0,0.8-0.3,0.9-0.8
						C84.5,111.7,84.2,111.3,83.7,111.3z"/>
				</g>
			</g>
			<g id="XMLID_538_">
				<g id="XMLID_569_">
					<path class="st13" d="M87,78.4L72.5,92.8c-0.1,0.1-0.1,0.3,0,0.4l0.4,0.4l-1,1c-0.1,0.1-0.1,0.3,0,0.4l0.8,0.8
						c0.1,0.1,0.3,0.1,0.4,0l1-1l0.4,0.4c0.1,0.1,0.3,0.1,0.4,0l14.5-14.5c0.1-0.1,0.1-0.3,0-0.4l-2-2C87.2,78.3,87.1,78.3,87,78.4z
						"/>
				</g>
				<g id="XMLID_568_">
					<path class="st0" d="M75,90.3l-2.6,2.6c-0.1,0.1-0.1,0.3,0,0.4l0.4,0.4l-1,1c-0.1,0.1-0.1,0.3,0,0.4l0.8,0.8
						c0.1,0.1,0.3,0.1,0.4,0l1-1l0.4,0.4c0.1,0.1,0.3,0.1,0.4,0l5.4-5.4L75,90.3z"/>
				</g>
				<g id="XMLID_567_">
					<path class="st2" d="M93.2,76.6l-4.3,4.3c-0.4,0.4-1,0.4-1.4,0l-0.6-0.6c-0.4-0.4-0.4-1,0-1.4l4.3-4.3c0.4-0.4,1-0.4,1.4,0
						l0.6,0.6C93.6,75.5,93.6,76.2,93.2,76.6z"/>
				</g>
				<g id="XMLID_566_" class="st9">
					<path class="st10" d="M89.5,80.2l0.2-0.2l-2.1-2.1l-0.2,0.2c-0.5,0.5-0.5,1.4,0,1.9l0.1,0.1C88.2,80.7,89,80.7,89.5,80.2z"/>
				</g>
				<g id="XMLID_565_" class="st9">
					
						<rect x="86.4" y="78.7" transform="matrix(0.7071 -0.7071 0.7071 0.7071 -31.2543 85.2746)" class="st10" width="1.8" height="3.3"/>
				</g>
				<g id="XMLID_564_">
					<path class="st2" d="M90,82.3L90,82.3c-0.3,0.3-0.9,0.3-1.3,0l-3.4-3.4c-0.3-0.3-0.3-0.9,0-1.3l0,0c0.3-0.3,0.9-0.3,1.3,0
						L90,81C90.4,81.4,90.4,82,90,82.3z"/>
				</g>
				<g id="XMLID_563_">
					
						<rect x="73.5" y="91.8" transform="matrix(0.7073 -0.707 0.707 0.7073 -43.7034 79.1251)" class="st3" width="0.3" height="1"/>
				</g>
				<g id="XMLID_562_">
					
						<rect x="74.5" y="90.8" transform="matrix(0.7073 -0.707 0.707 0.7073 -42.7161 79.5343)" class="st3" width="0.3" height="1"/>
				</g>
				<g id="XMLID_561_">
					
						<rect x="75.5" y="89.9" transform="matrix(0.707 -0.7073 0.7073 0.707 -41.7332 79.9943)" class="st3" width="0.3" height="1"/>
				</g>
				<g id="XMLID_560_">
					
						<rect x="76.5" y="88.9" transform="matrix(0.7071 -0.7071 0.7071 0.7071 -40.7433 80.378)" class="st3" width="0.3" height="1"/>
				</g>
				<g id="XMLID_559_">
					
						<rect x="77.5" y="87.9" transform="matrix(0.7073 -0.707 0.707 0.7073 -39.7539 80.7616)" class="st3" width="0.3" height="1"/>
				</g>
				<g id="XMLID_558_">
					
						<rect x="78.5" y="86.9" transform="matrix(0.707 -0.7073 0.7073 0.707 -38.7692 81.2216)" class="st3" width="0.3" height="1"/>
				</g>
				<g id="XMLID_543_">
					
						<rect x="79.5" y="85.9" transform="matrix(0.7071 -0.7071 0.7071 0.7071 -37.7802 81.6059)" class="st3" width="0.3" height="1"/>
				</g>
				<g id="XMLID_542_">
					
						<rect x="80.4" y="84.9" transform="matrix(0.7074 -0.7068 0.7068 0.7074 -36.7911 81.9634)" class="st3" width="0.3" height="1"/>
				</g>
				<g id="XMLID_541_">
					
						<rect x="81.4" y="83.9" transform="matrix(0.7071 -0.7071 0.7071 0.7071 -35.8048 82.4235)" class="st3" width="0.3" height="1"/>
				</g>
				<g id="XMLID_540_">
					<rect x="82.4" y="82.9" transform="matrix(0.7073 -0.707 0.707 0.7073 -34.817 82.8078)" class="st3" width="0.3" height="1"/>
				</g>
				<g id="XMLID_539_">
					
						<rect x="83.4" y="82" transform="matrix(0.7068 -0.7074 0.7074 0.7068 -33.8291 83.2926)" class="st3" width="0.3" height="1"/>
				</g>
			</g>
			<g id="XMLID_537_" class="st9">
				<path class="st10" d="M69.9,100.3c0,0.2,0,0.3,0,0.5c0.2,1.1,1.2,2,2.4,2c1.4,0,2.5-1.1,2.5-2.5c0-0.1,0-0.3-0.1-0.4
					c0,0,0,0,0,0c0,0,0,0,0,0c0-0.1-0.1-0.2-0.1-0.3c0-0.1-0.1-0.2-0.1-0.2c-0.1-0.1-0.1-0.2-0.2-0.4c0-0.1-0.1-0.2-0.1-0.2
					c-0.1-0.1-0.2-0.2-0.3-0.4c-0.1-0.1-0.1-0.1-0.2-0.2c-0.1-0.1-0.2-0.2-0.3-0.4c0,0-0.1-0.1-0.1-0.1h-2
					C70.7,98.5,69.9,99.6,69.9,100.3z"/>
			</g>
			<g id="XMLID_526_">
				<g id="XMLID_536_">
					<path class="st0" d="M74.3,99.8c0,1.4-1.1,2.5-2.5,2.5c-1.4,0-2.5-1.1-2.5-2.5c0-1.4,2.5-3.9,2.5-3.9S74.3,98.4,74.3,99.8z"/>
				</g>
				<g id="XMLID_535_">
					<path class="st15" d="M74.2,99.4c-0.4-1.4-2.4-3.4-2.4-3.4s-2.5,2.5-2.5,3.9c0,0.3,0.1,0.7,0.2,0.9c0.5,0.6,1.2,1,2,1
						C72.9,101.7,74,100.7,74.2,99.4z"/>
				</g>
			</g>
		</g>
		<g>
			<g id="XMLID_524_">
				
					<rect x="211.2" y="102.6" transform="matrix(-1.836970e-16 1 -1 -1.836970e-16 339.4273 -96.3267)" class="st13" width="13.3" height="38"/>
			</g>
			<g id="XMLID_523_">
				
					<rect x="227" y="118.3" transform="matrix(-1.836970e-16 1 -1 -1.836970e-16 355.2028 -112.1022)" class="st18" width="13.3" height="6.4"/>
			</g>
			<g id="XMLID_522_">
				
					<rect x="220.6" y="118.3" transform="matrix(-1.836970e-16 1 -1 -1.836970e-16 348.7846 -105.684)" class="st25" width="13.3" height="6.4"/>
			</g>
			<g id="XMLID_521_">
				
					<rect x="214.2" y="118.3" transform="matrix(-1.836970e-16 1 -1 -1.836970e-16 342.3665 -99.2659)" class="st24" width="13.3" height="6.4"/>
			</g>
			<g id="XMLID_520_">
				
					<rect x="207.8" y="118.3" transform="matrix(-1.836970e-16 1 -1 -1.836970e-16 335.9484 -92.8478)" class="st42" width="13.3" height="6.4"/>
			</g>
			<g id="XMLID_519_">
				
					<rect x="201.3" y="118.3" transform="matrix(-1.836970e-16 1 -1 -1.836970e-16 329.5302 -86.4296)" class="st44" width="13.3" height="6.4"/>
			</g>
			<g id="XMLID_518_" class="st40">
				<polygon class="st10" points="203.1,128.2 193.7,118.8 201.3,114.9 216.5,114.7 				"/>
			</g>
			<g id="XMLID_517_">
				
					<rect x="205.2" y="89.5" transform="matrix(0.7071 0.7071 -0.7071 0.7071 138.7567 -117.9984)" class="st13" width="13.3" height="38"/>
			</g>
			<g id="XMLID_516_">
				
					<rect x="216.3" y="94.1" transform="matrix(0.7071 0.7071 -0.7071 0.7071 134.1349 -129.153)" class="st23" width="13.3" height="6.4"/>
			</g>
			<g id="XMLID_515_">
				
					<rect x="211.8" y="98.7" transform="matrix(0.7071 0.7071 -0.7071 0.7071 136.0159 -124.6151)" class="st33" width="13.3" height="6.4"/>
			</g>
			<g id="XMLID_514_">
				
					<rect x="207.3" y="103.2" transform="matrix(0.7071 0.7071 -0.7071 0.7071 137.8946 -120.0763)" class="st41" width="13.3" height="6.4"/>
			</g>
			<g id="XMLID_512_">
				
					<rect x="202.7" y="107.7" transform="matrix(0.7071 0.7071 -0.7071 0.7071 139.7744 -115.538)" class="st28" width="13.3" height="6.4"/>
			</g>
			<g id="XMLID_511_">
				
					<rect x="198.2" y="112.3" transform="matrix(0.7071 0.7071 -0.7071 0.7071 141.6543 -110.9997)" class="st29" width="13.3" height="6.4"/>
			</g>
			<g id="XMLID_510_" class="st40">
				<polygon class="st10" points="205.8,128.1 192.5,128.1 192.5,119.9 205.8,105.2 				"/>
			</g>
			<g id="XMLID_508_">
				<rect x="191.2" y="90.1" class="st13" width="13.3" height="38"/>
			</g>
			<g id="XMLID_507_">
				<rect x="191.2" y="90.1" class="st30" width="13.3" height="6.4"/>
			</g>
			<g id="XMLID_506_">
				<rect x="191.2" y="96.5" class="st2" width="13.3" height="6.4"/>
			</g>
			<g id="XMLID_505_">
				<rect x="191.2" y="103" class="st20" width="13.3" height="6.4"/>
			</g>
			<g id="XMLID_504_">
				<rect x="191.2" y="109.4" class="st39" width="13.3" height="6.4"/>
			</g>
			<g id="XMLID_503_">
				<rect x="191.2" y="115.8" class="st45" width="13.3" height="6.4"/>
			</g>
			<g id="XMLID_502_">
				<circle class="st26" cx="197.9" cy="124.7" r="1.5"/>
			</g>
		</g>
		<g id="XMLID_372_">
			<g id="XMLID_501_">
				<polygon class="st2" points="197.2,72.9 193.1,71.3 189,72.9 189,60 197.2,60 				"/>
			</g>
			<g id="XMLID_500_">
				<polygon class="st20" points="193.1,71.3 193.1,71.3 197.2,72.9 197.2,60 193.1,60 				"/>
			</g>
			<g id="XMLID_499_" class="st9">
				<path class="st10" d="M197.2,60h-4.1H189v4.5l3.9-2.1c0.2-0.1,0.4-0.1,0.5,0l3.8,2V60z"/>
			</g>
			<g id="XMLID_498_">
				<path class="st18" d="M201.7,65.7l-8.3-4.2c-0.2-0.1-0.4-0.1-0.5,0l-8.2,4.4c-0.4,0.2-0.9-0.1-0.8-0.6l1.5-9.2
					c0-0.2,0-0.4-0.2-0.5l-6.8-6.4c-0.3-0.3-0.2-0.9,0.3-0.9l9.2-1.5c0.2,0,0.3-0.1,0.4-0.3l4-8.4c0.2-0.4,0.8-0.4,1,0l4.2,8.3
					c0.1,0.2,0.2,0.3,0.4,0.3l9.2,1.2c0.5,0.1,0.6,0.6,0.3,0.9l-6.6,6.6c-0.1,0.1-0.2,0.3-0.2,0.5l1.7,9.2
					C202.6,65.5,202.1,65.9,201.7,65.7z"/>
			</g>
			<g id="XMLID_374_">
				<g id="XMLID_496_">
					<g id="XMLID_497_">
						
							<rect x="192" y="33.3" transform="matrix(3.910973e-03 -1 1 3.910973e-03 158.3793 226.6685)" class="st23" width="1.9" height="1.2"/>
					</g>
				</g>
				<g id="XMLID_494_">
					<g id="XMLID_495_">
						
							<rect x="196.3" y="33" transform="matrix(0.26 -0.9656 0.9656 0.26 114.1779 216.156)" class="st23" width="3.7" height="1.1"/>
					</g>
				</g>
				<g id="XMLID_492_">
					<g id="XMLID_493_">
						
							<rect x="201.5" y="35.8" transform="matrix(0.501 -0.8654 0.8654 0.501 69.5282 193.3643)" class="st23" width="1.9" height="1.2"/>
					</g>
				</g>
				<g id="XMLID_439_">
					<g id="XMLID_441_">
						
							<rect x="205.2" y="38.2" transform="matrix(0.7091 -0.7051 0.7051 0.7091 32.906 157.2632)" class="st23" width="3.7" height="1.2"/>
					</g>
				</g>
				<g id="XMLID_436_">
					<g id="XMLID_438_">
						
							<rect x="208.4" y="42.8" transform="matrix(0.8671 -0.4981 0.4981 0.8671 6.2058 110.0261)" class="st23" width="1.7" height="1.2"/>
					</g>
				</g>
				<g id="XMLID_434_">
					<g id="XMLID_435_">
						
							<rect x="210.3" y="47.1" transform="matrix(0.9667 -0.2558 0.2558 0.9667 -5.1425 55.8645)" class="st23" width="3.7" height="1.2"/>
					</g>
				</g>
				<g id="XMLID_432_">
					<g id="XMLID_433_">
						<rect x="210.9" y="52.3" class="st23" width="1.9" height="1.2"/>
					</g>
				</g>
				<g id="XMLID_430_">
					<g id="XMLID_431_">
						
							<rect x="211.5" y="56.1" transform="matrix(0.2642 -0.9645 0.9645 0.2642 100.1178 247.2402)" class="st23" width="1.2" height="3.7"/>
					</g>
				</g>
				<g id="XMLID_428_">
					<g id="XMLID_429_">
						
							<rect x="208.7" y="61.4" transform="matrix(0.5057 -0.8627 0.8627 0.5057 49.6725 211.3413)" class="st23" width="1.2" height="1.9"/>
					</g>
				</g>
				<g id="XMLID_426_">
					<g id="XMLID_427_">
						
							<rect x="206.3" y="65" transform="matrix(0.712 -0.7021 0.7021 0.712 12.6056 164.5235)" class="st23" width="1.2" height="3.7"/>
					</g>
				</g>
				<g id="XMLID_424_">
					<g id="XMLID_425_">
						
							<rect x="201.6" y="68.3" transform="matrix(0.87 -0.4931 0.4931 0.87 -7.7871 108.6956)" class="st23" width="1.1" height="1.6"/>
					</g>
				</g>
				<g id="XMLID_422_">
					<g id="XMLID_423_">
						
							<rect x="182.4" y="68.4" transform="matrix(0.5093 -0.8606 0.8606 0.5093 30.5462 191.6218)" class="st23" width="1.9" height="1.2"/>
					</g>
				</g>
				<g id="XMLID_420_">
					<g id="XMLID_421_">
						
							<rect x="176.9" y="66" transform="matrix(0.7153 -0.6988 0.6988 0.7153 4.3376 143.8752)" class="st23" width="3.7" height="1.2"/>
					</g>
				</g>
				<g id="XMLID_418_">
					<g id="XMLID_419_">
						
							<rect x="175.4" y="61.4" transform="matrix(0.8863 -0.4631 0.4631 0.8863 -8.6546 88.7379)" class="st23" width="2" height="1.1"/>
					</g>
				</g>
				<g id="XMLID_416_">
					<g id="XMLID_417_">
						
							<rect x="171.8" y="57" transform="matrix(0.9693 -0.246 0.246 0.9693 -8.8363 44.495)" class="st23" width="3.7" height="1.2"/>
					</g>
				</g>
				<g id="XMLID_414_">
					<g id="XMLID_415_">
						<rect x="173.7" y="51.9" class="st23" width="1.3" height="1.2"/>
					</g>
				</g>
				<g id="XMLID_411_">
					<g id="XMLID_413_">
						
							<rect x="173.3" y="45.5" transform="matrix(0.2734 -0.9619 0.9619 0.2734 80.8193 201.6244)" class="st23" width="1.2" height="3.7"/>
					</g>
				</g>
				<g id="XMLID_381_">
					<g id="XMLID_408_">
						
							<rect x="176.2" y="42.1" transform="matrix(0.5134 -0.8581 0.8581 0.5134 49.0677 172.5927)" class="st23" width="1.2" height="1.9"/>
					</g>
				</g>
				<g id="XMLID_379_">
					<g id="XMLID_380_">
						
							<rect x="178.6" y="36.6" transform="matrix(0.7187 -0.6954 0.6954 0.7187 23.6477 135.4054)" class="st23" width="1.2" height="3.7"/>
					</g>
				</g>
				<g id="XMLID_377_">
					<g id="XMLID_378_">
						
							<rect x="183.2" y="35.3" transform="matrix(0.8745 -0.4851 0.4851 0.8745 5.5112 93.7005)" class="st23" width="1.2" height="1.9"/>
					</g>
				</g>
				<g id="XMLID_375_">
					<g id="XMLID_376_">
						
							<rect x="187.6" y="31.6" transform="matrix(0.9705 -0.2412 0.2412 0.9705 -2.5209 46.3767)" class="st23" width="1.2" height="3.7"/>
					</g>
				</g>
			</g>
			<g id="XMLID_373_">
				<circle class="st19" cx="193.1" cy="53.8" r="6.7"/>
			</g>
		</g>
		<g class="st9">
			<path class="st10" d="M164.4,109.7v-5.9v-1.4V88.3h-36.3c-1,0-1.9,0.8-1.9,1.9v4v0.1v0v0.1v13h-2.3h0c-1.8,0-3.4,0.7-4.6,1.9
				c-1.2,1.2-1.9,2.9-1.9,4.6v13.9h1.6v-13.9c0-1.3,0.5-2.6,1.4-3.5c0.9-0.9,2.2-1.4,3.5-1.4h0h2.3v13v0.1v0v0.1v4
				c0,0.8,0.5,1.5,1.3,1.8h7.3v-4h-1.8l-3.2-9.6h30C162.3,114.4,164.4,112.3,164.4,109.7z"/>
		</g>
		<g>
			<g id="XMLID_231_">
				<g id="XMLID_370_">
					<g id="XMLID_371_">
						<path class="st3" d="M120.5,127.8h-1.6v-13.9c0-1.8,0.7-3.4,1.9-4.6c1.2-1.2,2.9-1.9,4.6-1.9h0h8.9v1.6h-8.9h0
							c-1.3,0-2.6,0.5-3.5,1.4c-0.9,0.9-1.4,2.2-1.4,3.5V127.8z"/>
					</g>
				</g>
				<g id="XMLID_369_">
					<path class="st23" d="M188.4,126.1c0,1-0.8,1.9-1.9,1.9h-57c-1,0-1.9-0.8-1.9-1.9V90.2c0-1,0.8-1.9,1.9-1.9h57
						c1,0,1.9,0.8,1.9,1.9V126.1z"/>
				</g>
				<g id="XMLID_368_">
					<circle class="st3" cx="134.2" cy="108.3" r="4.3"/>
				</g>
				<g id="XMLID_367_">
					<circle class="st23" cx="134.3" cy="108.2" r="4.3"/>
				</g>
				<g id="XMLID_366_">
					<circle class="st46" cx="134.2" cy="108.3" r="2.3"/>
				</g>
				<g id="XMLID_365_">
					<circle class="st12" cx="134.3" cy="108.2" r="2.3"/>
				</g>
				<g id="XMLID_319_">
					<g id="XMLID_357_">
						<path class="st3" d="M135.4,95.4H133c-0.1,0-0.2,0.1-0.2,0.2V97c0,0.1,0.1,0.2,0.2,0.2h2.4c0.1,0,0.2-0.1,0.2-0.2v-1.4
							C135.6,95.5,135.6,95.4,135.4,95.4z"/>
					</g>
					<g id="XMLID_320_">
						<g id="XMLID_355_">
							<path class="st3" d="M135.7,97c0,0.1-0.1,0.2-0.2,0.2h-2.4c-0.1,0-0.2-0.1-0.2-0.2v-1.4c0-0.1,0.1-0.2,0.2-0.2h2.4
								c0.1,0,0.2,0.1,0.2,0.2V97z"/>
						</g>
						<g id="XMLID_323_">
							<path class="st3" d="M135.6,96.9c0,0.1-0.1,0.2-0.2,0.2h-2.2c-0.1,0-0.2-0.1-0.2-0.2v-1.3c0-0.1,0.1-0.2,0.2-0.2h2.2
								c0.1,0,0.2,0.1,0.2,0.2V96.9z"/>
						</g>
					</g>
				</g>
				<g id="XMLID_286_">
					<g id="XMLID_318_">
						<path class="st3" d="M135.4,98.3H133c-0.1,0-0.2,0.1-0.2,0.2v1.4c0,0.1,0.1,0.2,0.2,0.2h2.4c0.1,0,0.2-0.1,0.2-0.2v-1.4
							C135.6,98.4,135.5,98.3,135.4,98.3z"/>
					</g>
					<g id="XMLID_287_">
						<g id="XMLID_317_">
							<path class="st3" d="M135.7,99.9c0,0.1-0.1,0.2-0.2,0.2h-2.4c-0.1,0-0.2-0.1-0.2-0.2v-1.4c0-0.1,0.1-0.2,0.2-0.2h2.4
								c0.1,0,0.2,0.1,0.2,0.2V99.9z"/>
						</g>
						<g id="XMLID_289_">
							<path class="st3" d="M135.6,99.8c0,0.1-0.1,0.2-0.2,0.2h-2.2c-0.1,0-0.2-0.1-0.2-0.2v-1.3c0-0.1,0.1-0.2,0.2-0.2h2.2
								c0.1,0,0.2,0.1,0.2,0.2V99.8z"/>
						</g>
					</g>
				</g>
				<g id="XMLID_281_">
					<g id="XMLID_285_">
						<path class="st3" d="M135.4,101.2H133c-0.1,0-0.2,0.1-0.2,0.2v1.4c0,0.1,0.1,0.2,0.2,0.2h2.4c0.1,0,0.2-0.1,0.2-0.2v-1.4
							C135.6,101.3,135.5,101.2,135.4,101.2z"/>
					</g>
					<g id="XMLID_282_">
						<g id="XMLID_284_">
							<path class="st3" d="M135.6,102.8c0,0.1-0.1,0.2-0.2,0.2H133c-0.1,0-0.2-0.1-0.2-0.2v-1.4c0-0.1,0.1-0.2,0.2-0.2h2.4
								c0.1,0,0.2,0.1,0.2,0.2V102.8z"/>
						</g>
						<g id="XMLID_283_">
							<path class="st3" d="M135.6,102.8c0,0.1-0.1,0.2-0.2,0.2h-2.2c-0.1,0-0.2-0.1-0.2-0.2v-1.3c0-0.1,0.1-0.2,0.2-0.2h2.2
								c0.1,0,0.2,0.1,0.2,0.2V102.8z"/>
						</g>
					</g>
				</g>
				<g id="XMLID_276_">
					<g id="XMLID_280_">
						<path class="st3" d="M135.2,113.4h-2.4c-0.1,0-0.2,0.1-0.2,0.2v1.4c0,0.1,0.1,0.2,0.2,0.2h2.4c0.1,0,0.2-0.1,0.2-0.2v-1.4
							C135.5,113.5,135.4,113.4,135.2,113.4z"/>
					</g>
					<g id="XMLID_277_">
						<g id="XMLID_279_">
							<path class="st3" d="M135.5,114.9c0,0.1-0.1,0.2-0.2,0.2h-2.4c-0.1,0-0.2-0.1-0.2-0.2v-1.4c0-0.1,0.1-0.2,0.2-0.2h2.4
								c0.1,0,0.2,0.1,0.2,0.2V114.9z"/>
						</g>
						<g id="XMLID_278_">
							<path class="st3" d="M135.4,114.9c0,0.1-0.1,0.2-0.2,0.2H133c-0.1,0-0.2-0.1-0.2-0.2v-1.3c0-0.1,0.1-0.2,0.2-0.2h2.2
								c0.1,0,0.2,0.1,0.2,0.2V114.9z"/>
						</g>
					</g>
				</g>
				<g id="XMLID_271_">
					<g id="XMLID_275_">
						<path class="st3" d="M135.2,116.3h-2.4c-0.1,0-0.2,0.1-0.2,0.2v1.4c0,0.1,0.1,0.2,0.2,0.2h2.4c0.1,0,0.2-0.1,0.2-0.2v-1.4
							C135.4,116.4,135.3,116.3,135.2,116.3z"/>
					</g>
					<g id="XMLID_272_">
						<g id="XMLID_274_">
							<path class="st3" d="M135.5,117.9c0,0.1-0.1,0.2-0.2,0.2h-2.4c-0.1,0-0.2-0.1-0.2-0.2v-1.4c0-0.1,0.1-0.2,0.2-0.2h2.4
								c0.1,0,0.2,0.1,0.2,0.2V117.9z"/>
						</g>
						<g id="XMLID_273_">
							<path class="st3" d="M135.4,117.8c0,0.1-0.1,0.2-0.2,0.2H133c-0.1,0-0.2-0.1-0.2-0.2v-1.3c0-0.1,0.1-0.2,0.2-0.2h2.2
								c0.1,0,0.2,0.1,0.2,0.2V117.8z"/>
						</g>
					</g>
				</g>
				<g id="XMLID_266_">
					<g id="XMLID_270_">
						<path class="st3" d="M135.2,119.2h-2.4c-0.1,0-0.2,0.1-0.2,0.2v1.4c0,0.1,0.1,0.2,0.2,0.2h2.4c0.1,0,0.2-0.1,0.2-0.2v-1.4
							C135.4,119.3,135.3,119.2,135.2,119.2z"/>
					</g>
					<g id="XMLID_267_">
						<g id="XMLID_269_">
							<path class="st3" d="M135.5,120.8c0,0.1-0.1,0.2-0.2,0.2h-2.4c-0.1,0-0.2-0.1-0.2-0.2v-1.4c0-0.1,0.1-0.2,0.2-0.2h2.4
								c0.1,0,0.2,0.1,0.2,0.2V120.8z"/>
						</g>
						<g id="XMLID_268_">
							<path class="st3" d="M135.4,120.7c0,0.1-0.1,0.2-0.2,0.2h-2.2c-0.1,0-0.2-0.1-0.2-0.2v-1.3c0-0.1,0.1-0.2,0.2-0.2h2.2
								c0.1,0,0.2,0.1,0.2,0.2V120.7z"/>
						</g>
					</g>
				</g>
				<g id="XMLID_261_">
					<g id="XMLID_264_">
						<g id="XMLID_265_">
							<rect x="127.6" y="94.3" class="st47" width="12.8" height="0.1"/>
						</g>
					</g>
					<g id="XMLID_262_">
						<g id="XMLID_263_">
							<rect x="127.6" y="94.2" class="st48" width="12.8" height="0.1"/>
						</g>
					</g>
				</g>
				<g id="XMLID_256_">
					<g id="XMLID_259_">
						<g id="XMLID_260_">
							<rect x="127.6" y="122" class="st47" width="12.8" height="0.1"/>
						</g>
					</g>
					<g id="XMLID_257_">
						<g id="XMLID_258_">
							<rect x="127.6" y="122" class="st48" width="12.8" height="0.1"/>
						</g>
					</g>
				</g>
				<g id="XMLID_255_">
					<rect x="140" y="94.2" class="st3" width="41.6" height="27.9"/>
				</g>
				<g id="XMLID_253_">
					<g id="XMLID_254_">
						<polygon class="st1" points="141.6,96.8 141.5,96.8 141.5,95.7 142.7,95.7 142.7,95.7 141.6,95.7 						"/>
					</g>
				</g>
				<g id="XMLID_251_">
					<g id="XMLID_252_">
						<polygon class="st1" points="141.6,119.6 141.5,119.6 141.5,120.7 142.7,120.7 142.7,120.6 141.6,120.6 						"/>
					</g>
				</g>
				<g id="XMLID_241_">
					<g id="XMLID_248_">
						<polygon class="st1" points="180.2,96.8 180.3,96.8 180.3,95.6 179.2,95.6 179.2,95.7 180.2,95.7 						"/>
					</g>
				</g>
				<g id="XMLID_239_">
					<g id="XMLID_240_">
						<polygon class="st1" points="180.2,119.5 180.3,119.5 180.3,120.7 179.2,120.7 179.2,120.6 180.2,120.6 						"/>
					</g>
				</g>
			</g>
			<g id="XMLID_217_" class="st9">
				<polygon class="st10" points="190,87.9 149.6,128.3 143,128.4 182.8,88.3 				"/>
			</g>
			<g id="XMLID_215_" class="st9">
				<g id="XMLID_216_">
					<polygon class="st10" points="190.7,124.2 162.8,124.2 162.8,119.8 186.4,119.9 186.4,95.7 190.7,95.7 					"/>
				</g>
			</g>
			<g id="XMLID_174_">
				<g id="XMLID_211_">
					<g id="XMLID_212_">
						<path class="st18" d="M194.8,128.3h-47.7l47.7-47.7V128.3z M162.2,122h26.4V95.7L162.2,122z"/>
					</g>
				</g>
				<g id="XMLID_209_">
					<g id="XMLID_210_">
						<rect x="191.5" y="86.8" class="st23" width="3.3" height="1.6"/>
					</g>
				</g>
				<g id="XMLID_207_">
					<g id="XMLID_208_">
						<rect x="191.5" y="91.2" class="st23" width="3.3" height="1.6"/>
					</g>
				</g>
				<g id="XMLID_205_">
					<g id="XMLID_206_">
						<rect x="191.5" y="95.6" class="st23" width="3.3" height="1.6"/>
					</g>
				</g>
				<g id="XMLID_203_">
					<g id="XMLID_204_">
						<rect x="191.5" y="100.1" class="st23" width="3.3" height="1.6"/>
					</g>
				</g>
				<g id="XMLID_201_">
					<g id="XMLID_202_">
						<rect x="191.5" y="104.5" class="st23" width="3.3" height="1.6"/>
					</g>
				</g>
				<g id="XMLID_199_">
					<g id="XMLID_200_">
						<rect x="191.5" y="108.9" class="st23" width="3.3" height="1.6"/>
					</g>
				</g>
				<g id="XMLID_197_">
					<g id="XMLID_198_">
						<rect x="191.5" y="113.4" class="st23" width="3.3" height="1.6"/>
					</g>
				</g>
				<g id="XMLID_195_">
					<g id="XMLID_196_">
						<rect x="191.5" y="117.8" class="st23" width="3.3" height="1.6"/>
					</g>
				</g>
				<g id="XMLID_193_">
					<g id="XMLID_194_">
						<rect x="191.5" y="122.2" class="st23" width="3.3" height="1.6"/>
					</g>
				</g>
				<g id="XMLID_191_">
					<g id="XMLID_192_">
						<rect x="153.9" y="124.8" class="st23" width="1.6" height="3.3"/>
					</g>
				</g>
				<g id="XMLID_189_">
					<g id="XMLID_190_">
						<rect x="158.4" y="124.8" class="st23" width="1.6" height="3.3"/>
					</g>
				</g>
				<g id="XMLID_187_">
					<g id="XMLID_188_">
						<rect x="162.8" y="124.8" class="st23" width="1.6" height="3.3"/>
					</g>
				</g>
				<g id="XMLID_185_">
					<g id="XMLID_186_">
						<rect x="167.2" y="124.8" class="st23" width="1.6" height="3.3"/>
					</g>
				</g>
				<g id="XMLID_183_">
					<g id="XMLID_184_">
						<rect x="171.7" y="124.8" class="st23" width="1.6" height="3.3"/>
					</g>
				</g>
				<g id="XMLID_181_">
					<g id="XMLID_182_">
						<rect x="176.1" y="124.8" class="st23" width="1.6" height="3.3"/>
					</g>
				</g>
				<g id="XMLID_179_">
					<g id="XMLID_180_">
						<rect x="180.5" y="124.8" class="st23" width="1.6" height="3.3"/>
					</g>
				</g>
				<g id="XMLID_177_">
					<g id="XMLID_178_">
						<rect x="185" y="124.8" class="st23" width="1.6" height="3.3"/>
					</g>
				</g>
				<g id="XMLID_175_">
					<g id="XMLID_176_">
						<rect x="189.4" y="124.8" class="st23" width="1.6" height="3.3"/>
					</g>
				</g>
			</g>
		</g>
		<g class="st9">
			<path class="st10" d="M196.5,123.6c0-0.1,0-0.2,0-0.3V90.1h-4v33.1c0,0.1,0,0.2,0,0.3l0.8,4.5h2.3L196.5,123.6z"/>
		</g>
		<g id="XMLID_170_">
			<g id="XMLID_173_">
				<path class="st33" d="M194.2,128.3H192l-0.9-4.7c0-0.1,0-0.2,0-0.3V78.9l2-4.1l2,4.1v44.3c0,0.1,0,0.2,0,0.3L194.2,128.3z"/>
			</g>
			<g id="XMLID_172_">
				<path class="st23" d="M192,128.3h1V74.9l-1.9,4v44.3c0,0.1,0,0.2,0,0.3L192,128.3z"/>
			</g>
			<g id="XMLID_171_">
				<polygon class="st3" points="191.1,78.9 193.1,74.8 195.1,78.9 				"/>
			</g>
		</g>
		<g>
			<rect x="71.2" y="38" class="st26" width="25.7" height="1"/>
		</g>
		<g>
			<rect x="83.9" y="27.9" class="st26" width="25.7" height="1"/>
		</g>
		<g>
			<rect x="8.9" y="67.4" class="st26" width="25.7" height="1"/>
		</g>
		<g>
			<rect x="97.6" y="38" class="st26" width="1.3" height="1"/>
		</g>
		<g>
			<rect y="74.4" class="st26" width="25.7" height="1"/>
		</g>
		<g>
			<rect x="26.4" y="74.4" class="st26" width="1.3" height="1"/>
		</g>
		<g>
			<rect x="99.8" y="38" class="st26" width="1.3" height="1"/>
		</g>
		<g>
			<rect x="144.2" y="36.8" class="st26" width="25.7" height="1"/>
		</g>
		<g>
			<rect x="170.6" y="36.8" class="st26" width="1.3" height="1"/>
		</g>
		<g>
			<rect x="172.8" y="36.8" class="st26" width="1.3" height="1"/>
		</g>
		<g>
			<g>
				<rect x="112.2" y="27.9" class="st26" width="3.2" height="1"/>
			</g>
			<g>
				<rect x="113.4" y="26.8" class="st26" width="1" height="3.2"/>
			</g>
		</g>
		<g>
			<g>
				<rect x="16.2" y="53.9" class="st26" width="3.2" height="1"/>
			</g>
			<g>
				<rect x="17.3" y="52.8" class="st26" width="1" height="3.2"/>
			</g>
		</g>
		<g>
			<g>
				<rect x="22" y="44.6" class="st26" width="5" height="1"/>
			</g>
			<g>
				<rect x="24" y="42.6" class="st26" width="1" height="5"/>
			</g>
		</g>
		<g>
			<g>
				<rect x="144.7" y="24.8" class="st26" width="4.8" height="1"/>
			</g>
			<g>
				<rect x="146.6" y="22.9" class="st26" width="1" height="4.8"/>
			</g>
		</g>
		<g>
			<g>
				<g>
					<path class="st26" d="M55.4,35.1c-2.2,0-4.2-1-5.7-2.6l0.8-0.6c1.2,1.4,3,2.3,4.9,2.3V35.1z M49.1,26.7l-1-0.2
						c0.4-2.1,1.6-4,3.5-5.1l0.5,0.9C50.5,23.2,49.4,24.8,49.1,26.7z"/>
				</g>
				<g>
					<path class="st26" d="M55.4,35.1v-1c3.5,0,6.4-2.9,6.4-6.4c0-3.5-2.9-6.4-6.4-6.4v-1c4.1,0,7.4,3.3,7.4,7.4
						S59.5,35.1,55.4,35.1z"/>
				</g>
			</g>
			<g>
				<g>
					<rect x="54.1" y="27.2" class="st26" width="2.6" height="1"/>
				</g>
				<g>
					<rect x="54.9" y="26.4" class="st26" width="1" height="2.6"/>
				</g>
			</g>
		</g>
		<g>
			<g>
				<g>
					<path class="st26" d="M129.9,41.2c-2.2,0-4.2-1-5.7-2.6L125,38c1.2,1.4,3,2.3,4.9,2.3V41.2z M123.6,32.8l-1-0.2
						c0.4-2.1,1.6-4,3.5-5.1l0.5,0.9C125,29.3,123.9,30.9,123.6,32.8z"/>
				</g>
				<g>
					<path class="st26" d="M129.9,41.2v-1c3.5,0,6.4-2.9,6.4-6.4s-2.9-6.4-6.4-6.4v-1c4.1,0,7.4,3.3,7.4,7.4S134,41.2,129.9,41.2z"
						/>
				</g>
			</g>
			<g>
				<g>
					<rect x="128.6" y="33.3" class="st26" width="2.6" height="1"/>
				</g>
				<g>
					<rect x="129.4" y="32.5" class="st26" width="1" height="2.6"/>
				</g>
			</g>
		</g>
		<g>
			<g>
				<path class="st26" d="M104.7,12.2c-0.8,0-1.6-0.2-2.3-0.5l0.8-1.8c0.5,0.2,1,0.3,1.6,0.3L104.7,12.2z M107,11.7l-0.8-1.8
					c0.5-0.2,0.9-0.5,1.3-0.9l1.4,1.4C108.4,11,107.7,11.4,107,11.7z M100.4,10.4c-0.6-0.6-1-1.2-1.3-2l1.9-0.8
					c0.2,0.5,0.5,0.9,0.9,1.3L100.4,10.4z M110.3,8.4l-1.8-0.8c0.2-0.5,0.3-1,0.3-1.6h2C110.8,6.9,110.6,7.7,110.3,8.4z M100.6,6.1
					l-2,0c0-0.8,0.2-1.6,0.5-2.3l1.8,0.8C100.7,5,100.6,5.5,100.6,6.1z M108.5,4.6c-0.2-0.5-0.5-0.9-0.9-1.3l1.4-1.4
					c0.6,0.6,1,1.2,1.3,2L108.5,4.6z M101.8,3.2l-1.4-1.4c0.6-0.6,1.2-1,2-1.3l0.8,1.9C102.7,2.5,102.2,2.8,101.8,3.2z M106.3,2.3
					c-0.5-0.2-1-0.3-1.6-0.3l0-2c0.8,0,1.6,0.2,2.3,0.5L106.3,2.3z"/>
			</g>
		</g>
	</g>
	<g>
		<g>
			<polygon class="st49" points="129.9,62.5 125.8,62.5 126.5,70.5 129.9,71.4 133.2,70.5 133.9,62.5 			"/>
			<polygon class="st50" points="129.9,63 133.4,63 132.8,70.1 129.9,70.9 			"/>
		</g>
		<polygon class="st51" points="132.6,63.9 127.1,63.9 127.4,67.2 131.2,67.2 131.1,68.5 129.9,68.9 128.7,68.5 128.6,67.7 
			127.5,67.7 127.6,69.4 129.9,70 132.1,69.4 132.4,66.1 128.5,66.1 128.4,65 132.5,65 		"/>
		<polygon class="st52" points="129.9,65 128.4,65 128.5,66.1 129.9,66.1 129.9,67.2 127.4,67.2 127.1,63.9 129.9,63.9 		"/>
		<polygon class="st52" points="128.7,68.5 129.9,68.9 129.9,70 127.6,69.4 127.5,67.7 128.6,67.7 		"/>
	</g>
	<g>
		<g>
			<polygon class="st53" points="129.9,73.7 125.9,73.7 126.6,81.5 129.9,82.4 133.2,81.5 133.9,73.7 			"/>
			<polygon class="st54" points="129.9,74.2 133.3,74.2 132.7,81.1 129.9,81.9 			"/>
		</g>
		<g>
			<polygon class="st55" points="132.6,75 132.5,76.2 127.5,78.3 127.4,77.2 			"/>
			<g>
				<polygon class="st51" points="127.2,75 127.3,76.2 132.5,76.2 132.6,75 				"/>
				<polygon class="st51" points="128.5,77.2 127.4,77.2 127.5,78.3 128.6,78.3 131.2,78.3 131.1,79.3 131.1,79.6 129.9,79.9 
					128.7,79.6 128.7,79.3 128.6,78.8 127.5,78.8 127.6,79.3 127.7,80.5 129.9,81.1 132.1,80.5 132.2,79.3 132.3,78.3 132.4,77.2 
					131.3,77.2 				"/>
			</g>
		</g>
		<g>
			<polygon class="st56" points="129.9,76.2 129.9,77.2 127.5,78.3 127.4,77.2 			"/>
			<g>
				<polygon class="st52" points="129.9,75 129.9,76.2 127.3,76.2 127.2,75 				"/>
				<polygon class="st52" points="129.9,79.9 129.9,79.9 129.9,81.1 129.9,81.1 127.7,80.5 127.6,79.3 127.5,78.8 128.6,78.8 
					128.7,79.3 128.7,79.6 				"/>
				<polygon class="st52" points="129.9,77.2 129.9,78.3 127.5,78.3 127.4,77.2 				"/>
			</g>
			<polygon class="st52" points="129.9,76.2 129.9,76.2 129.9,76.2 			"/>
		</g>
	</g>
</g>
<g id="Web_d">
	<g>
		<path class="st2" d="M22.9,119.2l-0.4,1.3H22l1.4-4H24l1.4,4h-0.6l-0.4-1.3H22.9z M24.3,118.8l-0.4-1.2c-0.1-0.3-0.1-0.5-0.2-0.7
			h0c-0.1,0.2-0.1,0.5-0.2,0.7l-0.4,1.2H24.3z"/>
		<path class="st2" d="M26.2,117.1c-0.2,0-0.3-0.1-0.3-0.3c0-0.2,0.1-0.3,0.3-0.3c0.2,0,0.3,0.1,0.3,0.3
			C26.5,116.9,26.4,117.1,26.2,117.1L26.2,117.1z M25.9,120.4v-2.9h0.5v2.9H25.9z"/>
	</g>
	<g>
		<path class="st0" d="M46.1,102.7c0.3-0.1,0.8-0.1,1.3-0.1c0.7,0,1.2,0.2,1.5,0.4c0.3,0.3,0.5,0.6,0.5,1.1c0,0.5-0.1,0.9-0.4,1.2
			c-0.4,0.4-1,0.6-1.6,0.6c-0.2,0-0.4,0-0.6,0v2.2h-0.7V102.7z M46.7,105.2c0.2,0,0.3,0.1,0.6,0.1c0.8,0,1.4-0.4,1.4-1.1
			c0-0.7-0.5-1.1-1.3-1.1c-0.3,0-0.5,0-0.7,0.1V105.2z"/>
		<path class="st0" d="M50,107.3c0.2,0.1,0.6,0.3,0.9,0.3c0.5,0,0.7-0.2,0.7-0.6c0-0.3-0.2-0.5-0.7-0.7c-0.7-0.3-1-0.6-1-1.1
			c0-0.6,0.5-1.1,1.3-1.1c0.4,0,0.7,0.1,0.9,0.2l-0.2,0.5c-0.2-0.1-0.4-0.2-0.8-0.2c-0.4,0-0.6,0.2-0.6,0.5c0,0.3,0.2,0.5,0.7,0.7
			c0.7,0.2,1,0.6,1,1.2c0,0.7-0.5,1.2-1.4,1.2c-0.4,0-0.8-0.1-1.1-0.3L50,107.3z"/>
	</g>
	<g>
		<path class="st62" d="M144.2,98.4c0.3-0.1,0.7-0.1,1.2-0.1c0.6,0,1,0.1,1.3,0.4c0.3,0.2,0.4,0.6,0.4,1c0,0.4-0.1,0.8-0.4,1
			c-0.3,0.3-0.8,0.5-1.4,0.5c-0.2,0-0.4,0-0.5,0v1.9h-0.6V98.4z M144.8,100.7c0.1,0,0.3,0,0.5,0c0.7,0,1.2-0.4,1.2-1
			c0-0.6-0.4-0.9-1.1-0.9c-0.3,0-0.5,0-0.6,0V100.7z"/>
		<path class="st62" d="M147.8,100.8c0-0.4,0-0.7,0-1.1h0.5l0,0.7h0c0.2-0.5,0.5-0.7,0.9-0.7c0.1,0,0.1,0,0.2,0v0.6
			c-0.1,0-0.1,0-0.2,0c-0.4,0-0.7,0.3-0.8,0.8c0,0.1,0,0.2,0,0.3v1.8h-0.6V100.8z"/>
	</g>
</g>
</svg>
