<?xml version="1.0" encoding="utf-8"?>
<!-- Generator: Adobe Illustrator 21.1.0, SVG Export Plug-In . SVG Version: 6.00 Build 0)  -->
<svg version="1.1" id="Layer_1" xmlns="http://www.w3.org/2000/svg" xmlns:xlink="http://www.w3.org/1999/xlink" x="0px" y="0px"
	 viewBox="0 0 195.2 122.3" style="enable-background:new 0 0 195.2 122.3;" xml:space="preserve">
<style type="text/css">
	.st0{fill:#FBB730;}
	.st1{fill:#B4EBF7;}
	.st2{fill:#53667F;}
	.st3{fill:#758599;}
	.st4{opacity:0.15;}
	.st5{fill:#231F20;}
	.st6{fill:#4E5D6D;}
	.st7{fill:#FFFFFF;}
	.st8{fill:#E0632F;}
	.st9{fill:#FBDA73;}
	.st10{fill:#D8D8D8;}
	.st11{fill:#FBD451;}
	.st12{fill:#E6E7E8;}
	.st13{fill:#F1F2F2;}
	.st14{opacity:0.2;}
	.st15{fill:#485059;}
	.st16{fill:#BCBEC0;}
	.st17{fill:#A7A9AC;}
	.st18{fill:#D1D3D4;}
	.st19{fill:#BAC2CC;}
	.st20{fill:#DDE0E5;}
	.st21{fill:#D2F3FA;}
	.st22{fill:#FBBB3C;}
	.st23{fill:#414042;}
	.st24{fill:#A84A23;}
	.st25{fill:#E68259;}
	.st26{fill:#6D737A;}
	.st27{opacity:0.3;}
	.st28{fill:#ECA182;}
	.st29{fill:#F9F9F9;}
	.st30{fill:#FCFCFC;}
	.st31{fill:#FAFBFC;}
</style>
<g id="Brand_d">
</g>
<g id="Graphic_d">
</g>
<g id="Web_d">
	<g>
		<g>
			<rect x="5.1" y="58.7" class="st0" width="27.8" height="1"/>
		</g>
		<g>
			<rect x="20.9" y="55" class="st0" width="27.8" height="1"/>
		</g>
		<g>
			<rect x="33.7" y="58.7" class="st0" width="1.4" height="1"/>
		</g>
		<g>
			<rect x="36.1" y="58.7" class="st0" width="1.4" height="1"/>
		</g>
		<g>
			<rect x="35" y="3" class="st0" width="27.8" height="1"/>
		</g>
		<g>
			<rect x="63.6" y="3" class="st0" width="1.4" height="1"/>
		</g>
		<g>
			<rect x="66" y="3" class="st0" width="1.4" height="1"/>
		</g>
		<g>
			<rect x="109.2" y="17.6" class="st0" width="27.8" height="1"/>
		</g>
		<g>
			<rect x="137.8" y="17.6" class="st0" width="1.4" height="1"/>
		</g>
		<g>
			<rect x="131.9" y="22.9" class="st0" width="18.2" height="1"/>
		</g>
		<g>
			<rect x="152.5" y="22.9" class="st0" width="1.4" height="1"/>
		</g>
		<g>
			<rect x="89.6" y="5.6" class="st0" width="18.2" height="1"/>
		</g>
		<g>
			<rect x="110.3" y="5.6" class="st0" width="1.4" height="1"/>
		</g>
		<g>
			<rect x="140.2" y="17.6" class="st0" width="1.4" height="1"/>
		</g>
		<g>
			<g>
				<rect x="51.6" y="55" class="st0" width="3.5" height="1"/>
			</g>
			<g>
				<rect x="52.9" y="53.7" class="st0" width="1" height="3.5"/>
			</g>
		</g>
		<g>
			<g>
				<rect x="30" y="13" class="st0" width="3.5" height="1"/>
			</g>
			<g>
				<rect x="31.2" y="11.8" class="st0" width="1" height="3.5"/>
			</g>
		</g>
		<g>
			<g>
				<rect x="165.2" y="16.2" class="st0" width="3.5" height="1"/>
			</g>
			<g>
				<rect x="166.5" y="14.9" class="st0" width="1" height="3.5"/>
			</g>
		</g>
		<g>
			<g>
				<rect x="126.2" y="2" class="st0" width="5.1" height="1"/>
			</g>
			<g>
				<rect x="128.3" class="st0" width="1" height="5.1"/>
			</g>
		</g>
		<g>
			<g>
				<g>
					<path class="st0" d="M68.6,28.7c-2.2,0-4.2-0.9-5.7-2.4l0.7-0.7c1.3,1.4,3.1,2.1,5,2.1V28.7z M61.7,20.5h-1
						c0.1-2.2,1-4.2,2.6-5.7l0.7,0.7C62.5,16.9,61.7,18.6,61.7,20.5z"/>
				</g>
				<g>
					<path class="st0" d="M68.6,28.7v-1c3.9,0,7-3.1,7-7s-3.1-7-7-7v-1c4.4,0,8,3.6,8,8S73,28.7,68.6,28.7z"/>
				</g>
			</g>
			<g>
				<g>
					<rect x="67.2" y="20.2" class="st0" width="2.8" height="1"/>
				</g>
				<g>
					<rect x="68.1" y="19.3" class="st0" width="1" height="2.8"/>
				</g>
			</g>
		</g>
		<g>
			<g>
				<g>
					<path class="st0" d="M187.2,48.4c-2.2,0-4.2-0.9-5.7-2.4l0.7-0.7c1.3,1.4,3.1,2.1,5,2.1V48.4z M180.3,40.1h-1
						c0.1-2.2,1-4.2,2.6-5.7l0.7,0.7C181.1,36.5,180.3,38.2,180.3,40.1z"/>
				</g>
				<g>
					<path class="st0" d="M187.2,48.4v-1c3.9,0,7-3.1,7-7s-3.1-7-7-7v-1c4.4,0,8,3.6,8,8S191.6,48.4,187.2,48.4z"/>
				</g>
			</g>
			<g>
				<g>
					<rect x="185.8" y="39.9" class="st0" width="2.8" height="1"/>
				</g>
				<g>
					<rect x="186.7" y="39" class="st0" width="1" height="2.8"/>
				</g>
			</g>
		</g>
		<g id="XMLID_1441_">
			<g id="XMLID_1445_">
				<g id="XMLID_1475_">
					<path class="st1" d="M43.3,121.6H4.8c-2.7,0-4.8-2.2-4.8-4.8V74.9h43.3c1.9,0,3.4,1.5,3.4,3.4v40
						C46.7,120.1,45.2,121.6,43.3,121.6z"/>
				</g>
				<g id="XMLID_1474_">
					<path class="st2" d="M4.7,112.4C3.2,112.3,0,112.6,0,116V72.9c0-2,1.6-3.6,3.6-3.6h1.1V112.4z"/>
				</g>
				<g id="XMLID_1473_">
					<path class="st3" d="M4.7,112.4V69.3H3.6c-0.4,0-0.9,0.1-1.2,0.2c0,0.1,0,0.1,0,0.2v42.9C3.2,112.4,4.1,112.3,4.7,112.4z"/>
				</g>
				<g id="XMLID_1446_" class="st4">
					<path class="st5" d="M46.2,82v-0.3h-5.7v-5.9h-0.3v5.9H34v-5.9h-0.3v5.9h-6.2v-6H27v6h-6.2v-6h-0.3v6h-6.2v-6H14v6H7.5v-6H7.2
						v6H5.5V82h1.7v6.2H5.5v0.3h1.7v6.2H5.5V95h1.7v6.2H5.5v0.3h1.8v6.2H5.4v0.3h1.8v6.2H5.4v0.3h1.8v5.9h0.3V115h6.2v5.9H14V115
						h6.2v6h0.3v-6H27v6h0.3v-6h6.2v6h0.3v-6H40v6h0.3v-6h5.6v-0.3h-5.6v-6.2h5.6V108h-5.6v-6.2h5.6v-0.3h-5.6v-6.2h5.6V95h-5.6
						v-6.2H46v-0.3h-5.7V82H46.2z M33.6,82v6.2h-6.2V82H33.6z M20.7,94.8v-6.2H27v6.2H20.7z M27,95.2v6.2h-6.2v-6.2H27z M20.4,94.8
						h-6.2v-6.2h6.2V94.8z M20.4,95.2v6.2h-6.2v-6.2H20.4z M20.4,101.8v6.2h-6.2v-6.2H20.4z M20.7,101.8H27v6.2h-6.2L20.7,101.8
						L20.7,101.8z M27.3,101.8h6.2v6.2h-6.2V101.8z M27.3,101.4v-6.2h6.2v6.2H27.3z M27.3,94.8v-6.2h6.2v6.2H27.3z M27,82v6.2h-6.2
						V82H27z M20.4,82v6.2h-6.2V82H20.4z M7.5,82h6.2v6.2H7.5V82z M7.5,88.6h6.2v6.2H7.5V88.6z M7.5,95.2h6.2v6.2H7.5V95.2z
						 M7.5,101.8h6.2v6.2H7.5V101.8z M7.5,114.6v-6.2h6.2v6.2H7.5z M14.1,114.6v-6.2h6.2v6.2H14.1z M20.7,114.6v-6.2H27v6.2H20.7z
						 M27.3,114.6v-6.2h6.2v6.2H27.3z M40.2,114.6H34v-6.2h6.2V114.6z M40.2,108H34v-6.2h6.2V108z M40.2,101.4H34v-6.2h6.2V101.4z
						 M40.2,94.8H34v-6.2h6.2V94.8z M40.2,88.2H34V82h6.2V88.2z"/>
				</g>
			</g>
			<g id="XMLID_1442_">
				<path class="st6" d="M35.7,95.2h-2.1c-0.3-1.1-0.7-2.2-1.3-3.1l1.5-1.5c0.5-0.5,0.5-1.4,0-2l-1.1-1.1c-0.5-0.5-1.4-0.5-2,0
					L29.1,89c-0.9-0.6-2-1-3.1-1.3v-2.1c0-0.8-0.6-1.4-1.4-1.4H23c-0.8,0-1.4,0.6-1.4,1.4v2.1c-1.1,0.2-2.1,0.7-3,1.3l-1.5-1.5
					c-0.5-0.5-1.4-0.6-2,0l-1.1,1c-0.5,0.5-0.5,1.4,0,2l1.5,1.5c-0.6,0.9-1,2-1.3,3.1h-2.1c-0.8,0-1.4,0.6-1.4,1.4v1.6
					c0,0.8,0.6,1.4,1.4,1.4h2.1c0.3,1.1,0.7,2.2,1.3,3.1l-1.5,1.5c-0.5,0.5-0.5,1.4,0,2l1.1,1.1c0.5,0.5,1.4,0.5,2,0l1.5-1.5
					c0.9,0.6,2,1,3.1,1.3v2.1c0,0.8,0.6,1.4,1.4,1.4h1.6c0.8,0,1.4-0.6,1.4-1.4V107c1.1-0.3,2.2-0.7,3.1-1.3l1.5,1.5
					c0.5,0.5,1.4,0.5,2,0l1.1-1.1c0.5-0.5,0.5-1.4,0-2l-1.5-1.5c0.6-0.9,1-2,1.3-3.1h2.1c0.8,0,1.4-0.6,1.4-1.4v-1.6
					C37,95.8,36.4,95.2,35.7,95.2z M23.9,104.2c-3.8,0-6.9-3.1-6.9-6.9s3.1-6.9,6.9-6.9s6.9,3.1,6.9,6.9S27.7,104.2,23.9,104.2z"/>
			</g>
		</g>
		<g id="XMLID_1419_">
			<g id="XMLID_1440_">
				<rect x="102" y="31.4" class="st7" width="69.3" height="90.2"/>
			</g>
			<g id="XMLID_1439_">
				<rect x="102" y="30.1" class="st8" width="69.3" height="5"/>
			</g>
			<g id="XMLID_1438_">
				<rect x="116.5" y="43.7" class="st9" width="47" height="18.4"/>
			</g>
			<g id="XMLID_1437_">
				<rect x="107.7" y="43.7" class="st2" width="7.1" height="5.4"/>
			</g>
			<g id="XMLID_1436_">
				<rect x="107.7" y="71.2" class="st1" width="7.1" height="5.4"/>
			</g>
			<g id="XMLID_1435_">
				<rect x="107.7" y="78" class="st10" width="7.1" height="5.4"/>
			</g>
			<g id="XMLID_1434_">
				<rect x="107.7" y="64.3" class="st8" width="7.1" height="5.4"/>
			</g>
			<g id="XMLID_1433_">
				<rect x="116.5" y="63.4" class="st2" width="22.7" height="19.9"/>
			</g>
			<g id="XMLID_1432_">
				<rect x="140.8" y="63.4" class="st1" width="22.7" height="19.9"/>
			</g>
			<g id="XMLID_1431_">
				<rect x="107.7" y="50.6" class="st11" width="7.1" height="5.4"/>
			</g>
			<g id="XMLID_1430_">
				<rect x="107.7" y="57.5" class="st10" width="7.1" height="5.4"/>
			</g>
			<g>
				<g id="XMLID_1429_">
					<ellipse class="st7" cx="106" cy="32.7" rx="0.7" ry="0.7"/>
				</g>
				<g id="XMLID_1428_">
					<ellipse class="st7" cx="108.7" cy="32.7" rx="0.7" ry="0.7"/>
				</g>
				<g id="XMLID_1427_">
					<ellipse class="st7" cx="111.4" cy="32.7" rx="0.7" ry="0.7"/>
				</g>
			</g>
			<g id="XMLID_1426_">
				<rect x="120.2" y="85.4" class="st12" width="36.5" height="3"/>
			</g>
			<g id="XMLID_1425_">
				<rect x="124.7" y="89.7" class="st13" width="26.1" height="1.5"/>
			</g>
			<g id="XMLID_1424_">
				<rect x="109.4" y="93.8" class="st13" width="54.1" height="1.5"/>
			</g>
			<g id="XMLID_1423_">
				<rect x="109.4" y="97.6" class="st13" width="54.1" height="1.5"/>
			</g>
			<g id="XMLID_1422_">
				<rect x="109.4" y="101.4" class="st13" width="54.1" height="1.5"/>
			</g>
			<g id="XMLID_1421_">
				<rect x="109.4" y="105.2" class="st13" width="54.1" height="1.5"/>
			</g>
			<g id="XMLID_1420_">
				<rect x="109.4" y="112.8" class="st13" width="54.1" height="8.7"/>
			</g>
		</g>
		<g class="st14">
			<path class="st5" d="M46.7,118V78.6c0-2-1.6-3.7-3.7-3.7H26.6v39.3c0,1.8,0,3.4,0,3.6h-3.5c-0.3,0-0.6,0.3-0.6,0.6v1.3l1,1.3
				c0.3,0.4,0.5,0.6,1,0.6h18.4C45.1,121.6,46.7,120,46.7,118z"/>
		</g>
		<g class="st14">
			<path class="st5" d="M120.9,117.8h-3.5c0-0.3,0-1.8,0-3.6V70.8c0-2-1.5-3.7-3.5-3.7H33.3c-1.9,0-3.5,1.6-3.5,3.7v43.4
				c0,1.8,0,3.4,0,3.6h-3.5c-0.3,0-0.6,0.3-0.6,0.6v1.3l1,1.3c0.3,0.4,0.5,0.6,1,0.6h91.8c0.3,0,0.6-0.2,0.9-0.6l1-1.3v-1.3
				C121.5,118.1,121.3,117.8,120.9,117.8z"/>
		</g>
		<g id="XMLID_1325_">
			<g id="XMLID_1418_">
				<path class="st2" d="M115.9,114.2c0,2,0,3.7,0,3.7H28.2c0,0,0-1.7,0-3.7V70.8c0-2,1.6-3.7,3.5-3.7h80.8c1.9,0,3.5,1.6,3.5,3.7
					L115.9,114.2L115.9,114.2z"/>
			</g>
			<g id="XMLID_1417_">
				<rect x="32.4" y="70.7" class="st15" width="79.3" height="43.7"/>
			</g>
			<g id="XMLID_1416_">
				<path class="st12" d="M119.9,118.4c0-0.3-0.3-0.6-0.6-0.6H24.7c-0.3,0-0.6,0.3-0.6,0.6v1.3h95.7L119.9,118.4z"/>
			</g>
			<g id="XMLID_1415_">
				<path class="st16" d="M24.2,119.7l1,1.3c0.3,0.4,0.5,0.6,1,0.6H118c0.3,0,0.6-0.2,0.9-0.6l1-1.3H24.2z"/>
			</g>
			<g id="XMLID_1414_">
				<path class="st17" d="M57.3,117.8v0.7c0,0.2,0.3,0.3,0.6,0.3h25.3c0.4,0,0.6-0.1,0.6-0.3v-0.7H57.3z"/>
			</g>
			<g id="XMLID_1413_">
				<rect x="36" y="74.5" class="st8" width="1.5" height="1.5"/>
			</g>
			<g id="XMLID_1412_">
				<rect x="36" y="78" class="st8" width="1.5" height="1.5"/>
			</g>
			<g id="XMLID_1411_">
				<rect x="36" y="81.5" class="st8" width="1.5" height="1.5"/>
			</g>
			<g id="XMLID_1410_">
				<rect x="36" y="85.1" class="st8" width="1.5" height="1.5"/>
			</g>
			<g id="XMLID_1409_">
				<rect x="36" y="88.6" class="st8" width="1.5" height="1.5"/>
			</g>
			<g id="XMLID_1408_">
				<rect x="36" y="92.1" class="st8" width="1.5" height="1.5"/>
			</g>
			<g id="XMLID_1407_">
				<rect x="36" y="95.6" class="st8" width="1.5" height="1.5"/>
			</g>
			<g id="XMLID_1406_">
				<rect x="36" y="99.2" class="st8" width="1.5" height="1.5"/>
			</g>
			<g id="XMLID_1405_">
				<rect x="36" y="102.7" class="st8" width="1.5" height="1.5"/>
			</g>
			<g id="XMLID_1404_">
				<rect x="36" y="106.2" class="st8" width="1.5" height="1.5"/>
			</g>
			<g id="XMLID_1403_">
				<rect x="36" y="109.7" class="st8" width="1.5" height="1.5"/>
			</g>
			<g id="XMLID_1402_">
				<rect x="40.6" y="74.9" class="st7" width="12.2" height="0.7"/>
			</g>
			<g id="XMLID_1401_">
				<rect x="40.6" y="89.7" class="st7" width="12.2" height="0.7"/>
			</g>
			<g id="XMLID_1400_">
				<rect x="54" y="89.8" class="st1" width="2.6" height="0.7"/>
			</g>
			<g id="XMLID_1399_">
				<rect x="43.1" y="76.9" class="st1" width="6.8" height="0.7"/>
			</g>
			<g id="XMLID_1398_">
				<rect x="51.2" y="77" class="st7" width="8.3" height="0.7"/>
			</g>
			<g id="XMLID_1397_">
				<rect x="43.1" y="91.7" class="st11" width="8.3" height="0.7"/>
			</g>
			<g id="XMLID_1396_">
				<rect x="40.6" y="105.6" class="st7" width="12.2" height="0.7"/>
			</g>
			<g id="XMLID_1395_">
				<rect x="55.3" y="105.6" class="st11" width="5.8" height="0.7"/>
			</g>
			<g id="XMLID_1394_">
				<rect x="43.1" y="107.7" class="st1" width="4.6" height="0.7"/>
			</g>
			<g id="XMLID_1393_">
				<rect x="49.9" y="107.6" class="st7" width="14.9" height="0.7"/>
			</g>
			<g id="XMLID_1390_">
				<rect x="45.3" y="111.2" class="st7" width="35.1" height="0.7"/>
			</g>
			<g id="XMLID_1387_">
				<rect x="81.3" y="111.3" class="st11" width="3.5" height="0.7"/>
			</g>
			<g id="XMLID_1381_">
				<rect x="85.6" y="111.3" class="st7" width="17.9" height="0.7"/>
			</g>
			<g id="XMLID_1378_">
				<rect x="45.1" y="80.3" class="st7" width="12.2" height="0.7"/>
			</g>
			<g id="XMLID_1377_">
				<rect x="45.1" y="96.1" class="st7" width="12.2" height="0.7"/>
			</g>
			<g id="XMLID_1373_">
				<rect x="45.2" y="98.4" class="st7" width="23.2" height="0.7"/>
			</g>
			<g id="XMLID_1370_">
				<rect x="69.3" y="98.4" class="st7" width="6" height="0.7"/>
			</g>
			<g id="XMLID_1369_">
				<rect x="76.5" y="98.4" class="st7" width="17.1" height="0.7"/>
			</g>
			<g id="XMLID_1351_">
				<rect x="45.3" y="100.8" class="st1" width="6.1" height="0.7"/>
			</g>
			<g id="XMLID_1339_">
				<rect x="52.9" y="100.8" class="st7" width="7.8" height="0.7"/>
			</g>
			<g id="XMLID_1338_">
				<rect x="58.5" y="96" class="st7" width="7.2" height="0.7"/>
			</g>
			<g id="XMLID_1337_">
				<rect x="67" y="96.1" class="st7" width="3.4" height="0.7"/>
			</g>
			<g id="XMLID_1336_">
				<rect x="71.9" y="96" class="st11" width="6.6" height="0.7"/>
			</g>
			<g id="XMLID_1335_">
				<rect x="81.3" y="96.1" class="st7" width="22.7" height="0.7"/>
			</g>
			<g id="XMLID_1334_">
				<rect x="45.1" y="82.7" class="st7" width="21.6" height="0.7"/>
			</g>
			<g id="XMLID_1333_">
				<rect x="68.4" y="82.7" class="st7" width="12" height="0.7"/>
			</g>
			<g id="XMLID_1332_">
				<rect x="58.9" y="80.3" class="st11" width="2.2" height="0.7"/>
			</g>
			<g id="XMLID_1331_">
				<rect x="62.7" y="80.3" class="st7" width="13.9" height="0.7"/>
			</g>
			<g id="XMLID_1330_">
				<rect x="45.1" y="84.7" class="st7" width="7.7" height="0.7"/>
			</g>
			<g id="XMLID_1329_">
				<rect x="54.6" y="84.7" class="st11" width="9.3" height="0.7"/>
			</g>
			<g id="XMLID_1328_">
				<rect x="65.2" y="84.7" class="st7" width="22.6" height="0.7"/>
			</g>
			<g id="XMLID_1327_">
				<rect x="78.2" y="80.3" class="st7" width="12.4" height="0.7"/>
			</g>
			<g id="XMLID_1326_">
				<rect x="91.8" y="80.3" class="st1" width="9.9" height="0.7"/>
			</g>
		</g>
		<g id="XMLID_1324_" class="st14">
			<polygon class="st5" points="71.8,74.7 78.5,67.2 65.2,67.2 			"/>
		</g>
		<g id="XMLID_1305_">
			<g id="XMLID_1323_">
				<polygon class="st16" points="61.9,51.9 58.5,57.6 65.2,57.6 				"/>
			</g>
			<g id="XMLID_1322_">
				<polygon class="st16" points="81.8,51.9 78.5,57.6 85.1,57.6 				"/>
			</g>
			<g id="XMLID_1314_">
				<polygon class="st16" points="68.5,51.9 65.2,57.6 71.8,57.6 				"/>
			</g>
			<g id="XMLID_1313_">
				<polygon class="st12" points="61.9,51.9 65.2,57.6 68.5,51.9 				"/>
			</g>
			<g id="XMLID_1312_">
				<polygon class="st16" points="75.1,51.9 71.8,57.6 78.5,57.6 				"/>
			</g>
			<g id="XMLID_1311_">
				<polygon class="st12" points="65.2,57.6 71.8,72.7 71.8,57.6 				"/>
			</g>
			<g id="XMLID_1310_">
				<polygon class="st18" points="58.5,57.6 71.8,72.7 65.2,57.6 				"/>
			</g>
			<g id="XMLID_1309_">
				<polygon class="st12" points="85.1,57.6 71.8,72.7 78.5,57.6 				"/>
			</g>
			<g id="XMLID_1308_">
				<polygon class="st18" points="71.8,57.6 71.8,72.7 78.5,57.6 				"/>
			</g>
			<g id="XMLID_1307_">
				<polygon class="st12" points="68.5,51.9 71.8,57.6 75.1,51.9 				"/>
			</g>
			<g id="XMLID_1306_">
				<polygon class="st12" points="75.1,51.9 78.5,57.6 81.8,51.9 				"/>
			</g>
		</g>
		<g>
			<g id="XMLID_1304_">
				<circle class="st15" cx="93.8" cy="18.9" r="9.8"/>
			</g>
			<g id="XMLID_1297_">
				<g id="XMLID_1300_">
					<path class="st7" d="M94.7,20.7"/>
				</g>
			</g>
		</g>
		<g>
			<g id="XMLID_1295_">
				<circle class="st2" cx="80" cy="41.3" r="7.7"/>
			</g>
		</g>
		<g class="st14">
			<path class="st5" d="M97.6,67.2H86.1c1,2.1,3.2,3.6,5.7,3.6S96.6,69.3,97.6,67.2z"/>
		</g>
		<g>
			<g id="XMLID_1278_">
				<circle class="st1" cx="91.8" cy="62.8" r="6.4"/>
			</g>
			<g id="XMLID_1261_">
				<g id="XMLID_1263_">
					<path class="st7" d="M95.6,62.1c-0.1-0.2-0.1-0.4-0.2-0.6l0,0"/>
				</g>
			</g>
		</g>
		<g class="st14">
			<path class="st5" d="M102.9,42c-0.3,0-0.6,0-0.8,0.1v13.2c0.3,0,0.6,0.1,0.8,0.1c3.7,0,6.7-3,6.7-6.7C109.6,45,106.6,42,102.9,42
				z"/>
		</g>
		<g>
			<g id="XMLID_1260_">
				<circle class="st8" cx="101.6" cy="47.6" r="8"/>
			</g>
		</g>
		<g class="st14">
			<g>
				
					<rect x="155" y="68.9" transform="matrix(0.2568 -0.9665 0.9665 0.2568 47.3765 203.0338)" class="st5" width="1.4" height="3.7"/>
			</g>
			<g>
				
					<rect x="157.7" y="85.3" transform="matrix(0.7062 -0.7081 0.7081 0.7062 -14.0033 138.2292)" class="st5" width="3.7" height="1.4"/>
			</g>
			<g>
				
					<rect x="152.8" y="82.8" transform="matrix(0.8556 -0.5176 0.5176 0.8556 -20.6924 92.7903)" class="st5" width="6.3" height="1.4"/>
			</g>
			<g>
				
					<rect x="166.3" y="57.9" transform="matrix(0.9652 -0.2617 0.2617 0.9652 -9.815 45.7857)" class="st5" width="1.4" height="3.7"/>
			</g>
			<g>
				<path class="st5" d="M150.7,121.6h20.7V62.9c-0.2,0-0.3,0-0.5,0c-6.7,0-12.1,5.4-12.1,12.1c0,4.2,2.2,8,5.5,10.1v2.5h-0.9v0.5
					h-0.3c-0.2,0-0.4,0.2-0.4,0.4v0.3c0,0.2,0.2,0.4,0.4,0.4h0.3V90h-0.3c-0.2,0-0.4,0.2-0.4,0.4v0.3c0,0.2,0.2,0.4,0.4,0.4h0.3v0.7
					h-0.3c-0.2,0-0.4,0.2-0.4,0.4v0.3c0,0.2,0.2,0.4,0.4,0.4h0.3v0.4l0.9,0.8h-9.9h-3.7l-1.3,2.7h1.3v1.8V121.6z"/>
			</g>
			<g>
				<polygon class="st5" points="170.4,61.1 171.3,61.1 171.3,53.7 170.5,53.7 				"/>
			</g>
			<g>
				
					<rect x="161.8" y="55.8" transform="matrix(0.9002 -0.4354 0.4354 0.9002 -9.7 76.6988)" class="st5" width="1.4" height="7.5"/>
			</g>
			<g>
				
					<rect x="159.2" y="61.9" transform="matrix(0.7052 -0.709 0.709 0.7052 1.9627 132.1545)" class="st5" width="1.4" height="3.7"/>
			</g>
			<g>
				
					<rect x="153.7" y="78.2" transform="matrix(0.9654 -0.2608 0.2608 0.9654 -15.1935 43.2984)" class="st5" width="3.7" height="1.4"/>
			</g>
			<g>
				
					<rect x="155.2" y="62.6" transform="matrix(0.5128 -0.8585 0.8585 0.5128 19.2385 166.0463)" class="st5" width="1.4" height="7"/>
			</g>
			<g>
				
					<rect x="150.2" y="74.2" transform="matrix(0.9996 -2.981987e-02 2.981987e-02 0.9996 -2.1653 4.6124)" class="st5" width="6.7" height="1.4"/>
			</g>
		</g>
		<g id="XMLID_1184_">
			<g id="XMLID_1202_">
				<g id="XMLID_1249_">
					<g id="XMLID_1250_">
						
							<rect x="168.6" y="56.6" transform="matrix(1.659473e-02 -0.9999 0.9999 1.659473e-02 112.0693 228.6368)" class="st8" width="7.4" height="1.4"/>
					</g>
				</g>
				<g id="XMLID_1247_">
					<g id="XMLID_1248_">
						
							<rect x="174.4" y="59.2" transform="matrix(0.2589 -0.9659 0.9659 0.2589 72.7862 214.6701)" class="st8" width="3.7" height="1.4"/>
					</g>
				</g>
				<g id="XMLID_1245_">
					<g id="XMLID_1246_">
						
							<rect x="177.5" y="59.4" transform="matrix(0.5262 -0.8504 0.8504 0.5262 34.6947 182.4281)" class="st8" width="7.2" height="1.4"/>
					</g>
				</g>
				<g id="XMLID_1243_">
					<g id="XMLID_1244_">
						
							<rect x="181.4" y="63.4" transform="matrix(0.7071 -0.7071 0.7071 0.7071 8.351 148.3661)" class="st8" width="3.7" height="1.4"/>
					</g>
				</g>
				<g id="XMLID_1241_">
					<g id="XMLID_1242_">
						
							<rect x="183.6" y="65.8" transform="matrix(0.8601 -0.5101 0.5101 0.8601 -7.742 104.8128)" class="st8" width="7.2" height="1.4"/>
					</g>
				</g>
				<g id="XMLID_1239_">
					<g id="XMLID_1240_">
						
							<rect x="185.4" y="70.5" transform="matrix(0.9657 -0.2598 0.2598 0.9657 -12.065 51.0913)" class="st8" width="3.7" height="1.4"/>
					</g>
				</g>
				<g id="XMLID_1237_">
					<g id="XMLID_1238_">
						<rect x="185.9" y="74.6" class="st8" width="7.2" height="1.4"/>
					</g>
				</g>
				<g id="XMLID_1235_">
					<g id="XMLID_1236_">
						
							<rect x="186.4" y="77.5" transform="matrix(0.2579 -0.9662 0.9662 0.2579 62.1701 239.6359)" class="st8" width="1.4" height="3.7"/>
					</g>
				</g>
				<g id="XMLID_1223_">
					<g id="XMLID_1224_">
						
							<rect x="186.4" y="80.3" transform="matrix(0.4761 -0.8794 0.8794 0.4761 24.1726 208.5507)" class="st8" width="1.4" height="7.4"/>
					</g>
				</g>
				<g id="XMLID_1221_">
					<g id="XMLID_1222_">
						
							<rect x="182.2" y="84.5" transform="matrix(0.7063 -0.7079 0.7079 0.7063 -7.4215 154.8319)" class="st8" width="1.4" height="3.7"/>
					</g>
				</g>
				<g id="XMLID_1219_">
					<g id="XMLID_1220_">
						
							<rect x="158.8" y="85.3" transform="matrix(0.7061 -0.7081 0.7081 0.7061 -13.6731 139.0038)" class="st8" width="3.7" height="1.4"/>
					</g>
				</g>
				<g id="XMLID_1217_">
					<g id="XMLID_1218_">
						
							<rect x="153.9" y="82.8" transform="matrix(0.8556 -0.5177 0.5177 0.8556 -20.5307 93.3783)" class="st8" width="6.3" height="1.4"/>
					</g>
				</g>
				<g id="XMLID_1215_">
					<g id="XMLID_1216_">
						
							<rect x="154.8" y="78.2" transform="matrix(0.9654 -0.2608 0.2608 0.9654 -15.1544 43.585)" class="st8" width="3.7" height="1.4"/>
					</g>
				</g>
				<g id="XMLID_1213_">
					<g id="XMLID_1214_">
						
							<rect x="151.3" y="74.2" transform="matrix(0.9995 -3.027276e-02 3.027276e-02 0.9995 -2.1965 4.7158)" class="st8" width="6.7" height="1.4"/>
					</g>
				</g>
				<g id="XMLID_1211_">
					<g id="XMLID_1212_">
						
							<rect x="156.1" y="68.8" transform="matrix(0.2565 -0.9665 0.9665 0.2565 48.2467 204.104)" class="st8" width="1.4" height="3.7"/>
					</g>
				</g>
				<g id="XMLID_1209_">
					<g id="XMLID_1210_">
						
							<rect x="156.3" y="62.5" transform="matrix(0.5124 -0.8588 0.8588 0.5124 19.8459 167.0374)" class="st8" width="1.4" height="7"/>
					</g>
				</g>
				<g id="XMLID_1207_">
					<g id="XMLID_1208_">
						
							<rect x="160.2" y="61.9" transform="matrix(0.7052 -0.709 0.709 0.7052 2.2227 132.8985)" class="st8" width="1.4" height="3.7"/>
					</g>
				</g>
				<g id="XMLID_1205_">
					<g id="XMLID_1206_">
						
							<rect x="162.8" y="55.8" transform="matrix(0.9002 -0.4354 0.4354 0.9002 -9.6139 77.141)" class="st8" width="1.4" height="7.5"/>
					</g>
				</g>
				<g id="XMLID_1203_">
					<g id="XMLID_1204_">
						
							<rect x="167.4" y="57.9" transform="matrix(0.9651 -0.2617 0.2617 0.9651 -9.7755 46.0733)" class="st8" width="1.4" height="3.7"/>
					</g>
				</g>
			</g>
			<g id="XMLID_1193_">
				<g id="XMLID_1201_">
					<circle class="st1" cx="171.9" cy="75" r="12.1"/>
				</g>
				<g id="XMLID_1200_">
					<rect x="165.3" y="83.6" class="st1" width="13.2" height="9.2"/>
				</g>
				<g id="XMLID_1199_">
					<polygon class="st19" points="179.4,93.4 175,97.1 168.5,97.1 164.5,93.4 164.5,87.6 179.4,87.6 					"/>
				</g>
				<g id="XMLID_1198_">
					<path class="st20" d="M179.7,89.2h-15.5c-0.2,0-0.4-0.2-0.4-0.4v-0.4c0-0.2,0.2-0.4,0.4-0.4h15.5c0.2,0,0.4,0.2,0.4,0.4v0.4
						C180,89.1,179.9,89.2,179.7,89.2z"/>
				</g>
				<g id="XMLID_1197_">
					<path class="st20" d="M179.7,91.1h-15.5c-0.2,0-0.4-0.2-0.4-0.4v-0.4c0-0.2,0.2-0.4,0.4-0.4h15.5c0.2,0,0.4,0.2,0.4,0.4v0.4
						C180,90.9,179.9,91.1,179.7,91.1z"/>
				</g>
				<g id="XMLID_1196_">
					<path class="st20" d="M179.7,92.9h-15.5c-0.2,0-0.4-0.2-0.4-0.4v-0.4c0-0.2,0.2-0.4,0.4-0.4h15.5c0.2,0,0.4,0.2,0.4,0.4v0.4
						C180,92.8,179.9,92.9,179.7,92.9z"/>
				</g>
				<g id="XMLID_1195_">
					<path class="st15" d="M173.6,99.1h-3.9c-0.8,0-1.4-0.6-1.4-1.4V97h6.8v0.7C175.1,98.4,174.4,99.1,173.6,99.1z"/>
				</g>
				<g id="XMLID_1194_">
					<circle class="st21" cx="171.9" cy="75" r="9.5"/>
				</g>
			</g>
			<g id="XMLID_1192_">
				<rect x="155.5" y="94.2" class="st7" width="36.5" height="28.2"/>
			</g>
			<g id="XMLID_1191_">
				<polygon class="st12" points="191,94.2 191,121.4 155.5,121.4 155.5,122.3 191.9,122.3 191.9,94.2 				"/>
			</g>
			<g id="XMLID_1190_">
				<rect x="151.8" y="94.1" class="st18" width="3.7" height="28.2"/>
			</g>
			<g id="XMLID_1189_" class="st14">
				<polygon class="st5" points="151.7,98.7 154.1,98.7 155.5,94.2 151.7,95.1 				"/>
			</g>
			<g id="XMLID_1188_">
				<polygon class="st12" points="150.4,96.9 154.1,96.9 155.5,94.2 151.7,94.2 				"/>
			</g>
			<g id="XMLID_1187_" class="st14">
				<polygon class="st5" points="191.9,98.7 191.9,95.1 155.5,94.2 157.5,98.7 				"/>
			</g>
			<g id="XMLID_1186_">
				<polygon class="st12" points="193.9,96.9 157.5,96.9 155.5,94.2 191.9,94.2 				"/>
			</g>
			<g id="XMLID_1185_">
				<polygon class="st8" points="174.8,74.3 170.8,74.3 174.8,65.1 167.9,74.9 166.7,76.7 169,76.7 172.9,76.7 169,84.9 175.8,76.1 
					177.3,74.3 				"/>
			</g>
		</g>
		<g class="st14">
			<polygon class="st5" points="166.3,109.7 166.3,109.7 165.4,109.7 162.9,109.7 162,109.7 159.5,109.7 158.6,109.7 156.1,109.7 
				155.2,109.7 152.7,109.7 151.8,109.7 149.3,109.7 148.4,109.7 145.9,109.7 145,109.7 142.5,109.7 141.6,109.7 139.1,109.7 
				138.2,109.7 135.7,109.7 134.8,109.7 132.3,109.7 131.4,109.7 128.9,109.7 128,109.7 125.5,109.7 124.6,109.7 122.1,109.7 
				121.2,109.7 118.6,109.7 117.8,109.7 115.2,109.7 114.4,109.7 111.8,109.7 111,109.7 108.4,109.7 107.6,109.7 105,109.7 
				104.2,109.7 101.6,109.7 100.8,109.7 98.2,109.7 97.4,109.7 94.8,109.7 94,109.7 91.4,109.7 90.6,109.7 89.7,109.7 89.7,116 
				89.7,122.3 166.3,122.3 166.3,116 166.3,111.5 166.3,111.5 			"/>
		</g>
		<g id="XMLID_1157_">
			<g id="XMLID_1183_">
				<rect x="91.2" y="111.1" class="st22" width="75.2" height="11.2"/>
			</g>
			<g id="XMLID_1181_">
				<rect x="91.2" y="111.1" class="st11" width="75.2" height="5.6"/>
			</g>
			<g id="XMLID_1180_">
				<rect x="92" y="111.2" class="st23" width="0.8" height="3.2"/>
			</g>
			<g id="XMLID_1179_">
				<rect x="95.3" y="111.2" class="st23" width="0.8" height="1.6"/>
			</g>
			<g id="XMLID_1178_">
				<rect x="98.6" y="111.1" class="st23" width="0.8" height="1.6"/>
			</g>
			<g id="XMLID_1177_">
				<rect x="102" y="111.2" class="st23" width="0.8" height="1.6"/>
			</g>
			<g id="XMLID_1176_">
				<rect x="105.3" y="111.1" class="st23" width="0.8" height="1.6"/>
			</g>
			<g id="XMLID_1175_">
				<rect x="108.7" y="111.1" class="st23" width="0.8" height="3.2"/>
			</g>
			<g id="XMLID_1174_">
				<rect x="112" y="111.2" class="st23" width="0.8" height="1.6"/>
			</g>
			<g id="XMLID_1173_">
				<rect x="115.3" y="111.1" class="st23" width="0.8" height="1.6"/>
			</g>
			<g id="XMLID_1172_">
				<rect x="118.7" y="111.2" class="st23" width="0.8" height="1.6"/>
			</g>
			<g id="XMLID_1171_">
				<rect x="122" y="111.1" class="st23" width="0.8" height="1.6"/>
			</g>
			<g id="XMLID_1170_">
				<rect x="125.4" y="111.1" class="st23" width="0.8" height="3.2"/>
			</g>
			<g id="XMLID_1169_">
				<rect x="128.7" y="111.2" class="st23" width="0.8" height="1.6"/>
			</g>
			<g id="XMLID_1168_">
				<rect x="132" y="111.1" class="st23" width="0.8" height="1.6"/>
			</g>
			<g id="XMLID_1167_">
				<rect x="135.4" y="111.2" class="st23" width="0.8" height="1.6"/>
			</g>
			<g id="XMLID_1166_">
				<rect x="138.7" y="111.2" class="st23" width="0.8" height="1.6"/>
			</g>
			<g id="XMLID_1165_">
				<rect x="142" y="111.1" class="st23" width="0.8" height="3.2"/>
			</g>
			<g id="XMLID_1164_">
				<rect x="145.4" y="111.2" class="st23" width="0.8" height="1.6"/>
			</g>
			<g id="XMLID_1163_">
				<rect x="148.7" y="111.1" class="st23" width="0.8" height="1.6"/>
			</g>
			<g id="XMLID_1162_">
				<rect x="152.1" y="111.1" class="st23" width="0.8" height="1.6"/>
			</g>
			<g id="XMLID_1161_">
				<rect x="155.4" y="111.2" class="st23" width="0.8" height="1.6"/>
			</g>
			<g id="XMLID_1160_">
				<rect x="158.7" y="111.1" class="st23" width="0.8" height="3.2"/>
			</g>
			<g id="XMLID_1159_">
				<rect x="162.1" y="111.2" class="st23" width="0.8" height="1.6"/>
			</g>
			<g id="XMLID_1158_">
				<rect x="165.4" y="111.1" class="st23" width="0.8" height="1.6"/>
			</g>
		</g>
		<g id="XMLID_1146_">
			<g id="XMLID_1156_">
				<polygon class="st13" points="25.6,71.2 23.7,64.1 21.9,71.2 21.9,72.2 25.6,72.2 				"/>
			</g>
			<g id="XMLID_1155_">
				<polygon class="st15" points="24.1,65.3 23.7,64.1 23.4,65.3 				"/>
			</g>
			<g id="XMLID_1154_">
				<polygon class="st24" points="23.1,114.7 21.9,114.7 21.9,71.2 22.5,69.6 23.1,71.2 				"/>
			</g>
			<g id="XMLID_1153_">
				<polygon class="st8" points="24.4,114.7 23.1,114.7 23.1,71.2 23.7,69.6 24.4,71.2 				"/>
			</g>
			<g id="XMLID_1152_">
				<polygon class="st25" points="25.6,114.7 24.4,114.7 24.4,71.2 25,69.6 25.6,71.2 				"/>
			</g>
			<g id="XMLID_1151_">
				<rect x="21.9" y="117.4" class="st7" width="3.7" height="4.3"/>
			</g>
			<g id="XMLID_1150_">
				<rect x="21.9" y="117.4" class="st13" width="1.9" height="4.3"/>
			</g>
			<g id="XMLID_1149_">
				<path class="st15" d="M25.7,117.5c0.3,0,0.6-0.3,0.6-0.6c0-0.3-0.3-0.6-0.6-0.6h-0.1v-0.9h0.1c0.3,0,0.6-0.3,0.6-0.6
					c0-0.3-0.3-0.6-0.6-0.6h-3.9c-0.3,0-0.6,0.3-0.6,0.6c0,0.3,0.3,0.6,0.6,0.6h0.1v0.9h-0.1c-0.3,0-0.6,0.3-0.6,0.6
					c0,0.3,0.3,0.6,0.6,0.6h0.1v0.9h-0.1c-0.3,0-0.6,0.3-0.6,0.6c0,0.3,0.3,0.6,0.6,0.6h3.9c0.3,0,0.6-0.3,0.6-0.6
					c0-0.3-0.3-0.6-0.6-0.6h-0.1L25.7,117.5L25.7,117.5z"/>
			</g>
			<g id="XMLID_1148_">
				<path class="st15" d="M21.8,114.1c-0.3,0-0.6,0.3-0.6,0.6c0,0.3,0.3,0.6,0.6,0.6h0.1v0.9h-0.1c-0.3,0-0.6,0.3-0.6,0.6
					c0,0.3,0.3,0.6,0.6,0.6h0.1v0.9h-0.1c-0.3,0-0.6,0.3-0.6,0.6c0,0.3,0.3,0.6,0.6,0.6h1.9V114h-1.9V114.1z"/>
			</g>
			<g id="XMLID_1147_">
				<path class="st26" d="M25.7,117.5c0.3,0,0.6-0.3,0.6-0.6c0-0.3-0.3-0.6-0.6-0.6h-0.1v-0.9h0.1c0.3,0,0.6-0.3,0.6-0.6
					c0-0.3-0.3-0.6-0.6-0.6h-1.9v5.5h1.9c0.3,0,0.6-0.3,0.6-0.6c0-0.3-0.3-0.6-0.6-0.6h-0.1L25.7,117.5L25.7,117.5z"/>
			</g>
		</g>
		<g id="XMLID_1043_">
			<g id="XMLID_1143_">
				<path class="st12" d="M57.9,29.6H47.8c-3.2,0-5.8,2.6-5.8,5.8v0.9c0,3.2,2.6,5.8,5.8,5.8h10.1c3.2,0,5.8-2.6,5.8-5.8v-0.9
					C63.7,32.2,61.1,29.6,57.9,29.6z M60,36.4c0,1.1-1,2.1-2.1,2.1H47.8c-1.1,0-2.1-1-2.1-2.1v-0.9c0-1.1,1-2.1,2.1-2.1h10.1
					c1.1,0,2.1,1,2.1,2.1V36.4z"/>
			</g>
			<g id="XMLID_1139_">
				<path class="st7" d="M47.8,41.1c-2.6,0-4.8-2.1-4.8-4.8v-0.9c0-2.6,2.1-4.8,4.8-4.8h10.1c2.6,0,4.8,2.1,4.8,4.8v0.9
					c0,2.6-2.1,4.8-4.8,4.8H47.8z M47.8,32.3c-1.7,0-3.2,1.5-3.2,3.2v0.9c0,1.7,1.5,3.2,3.2,3.2h10.1c1.7,0,3.2-1.5,3.2-3.2v-0.9
					c0-1.7-1.5-3.2-3.2-3.2H47.8z"/>
			</g>
			<g id="XMLID_1136_">
				<path class="st12" d="M35.2,29.6H25.1c-3.2,0-5.8,2.6-5.8,5.8v0.9c0,3.2,2.6,5.8,5.8,5.8h10.1c3.2,0,5.8-2.6,5.8-5.8v-0.9
					C41,32.2,38.4,29.6,35.2,29.6z M37.3,36.4c0,1.1-1,2.1-2.1,2.1H25.1c-1.1,0-2.1-1-2.1-2.1v-0.9c0-1.1,1-2.1,2.1-2.1h10.1
					c1.1,0,2.1,1,2.1,2.1V36.4z"/>
			</g>
			<g id="XMLID_1133_">
				<path class="st7" d="M25.1,41.1c-2.6,0-4.8-2.1-4.8-4.8v-0.9c0-2.6,2.1-4.8,4.8-4.8h10.1c2.6,0,4.8,2.1,4.8,4.8v0.9
					c0,2.6-2.1,4.8-4.8,4.8H25.1z M25.1,32.3c-1.7,0-3.2,1.5-3.2,3.2v0.9c0,1.7,1.5,3.2,3.2,3.2h10.1c1.7,0,3.2-1.5,3.2-3.2v-0.9
					c0-1.7-1.5-3.2-3.2-3.2H25.1z"/>
			</g>
			<g id="XMLID_1132_">
				<path class="st3" d="M51.5,37.9H33.1c-0.7,0-1.3-0.6-1.3-1.3v-1.3c0-0.7,0.6-1.3,1.3-1.3h18.5c0.7,0,1.3,0.6,1.3,1.3v1.3
					C52.9,37.3,52.3,37.9,51.5,37.9z"/>
			</g>
			<g id="XMLID_1131_">
				<path class="st2" d="M31.7,35.8v0.7c0,0.8,0.7,1.4,1.4,1.4h18.2c0.8,0,1.4-0.7,1.4-1.4v-0.7H31.7z"/>
			</g>
			<g id="XMLID_1130_" class="st27">
				<path class="st5" d="M35.6,33.4c0.9,0.2,1.6,1.1,1.6,2v0.9c0,0.9-0.6,1.7-1.5,2c0.6,1.2,1.6,2.2,2.8,2.7
					c1.5-1.1,2.4-2.8,2.4-4.7v-0.9c0-2.1-1.1-3.9-2.7-4.9C37.1,31.2,36.2,32.2,35.6,33.4z"/>
			</g>
			<g id="XMLID_1129_" class="st27">
				<path class="st5" d="M45.7,36.4v-0.9c0-1.1,0.9-2,2-2.1c-0.6-1.3-1.6-2.3-2.9-2.9c-1.7,1-2.9,2.9-2.9,5v0.9c0,2,1,3.8,2.6,4.9
					c1.3-0.5,2.4-1.5,3-2.8C46.6,38.3,45.7,37.4,45.7,36.4z"/>
			</g>
			<g id="XMLID_1128_">
				<circle class="st8" cx="41.7" cy="35.8" r="5.9"/>
			</g>
			<g id="XMLID_1127_">
				<circle class="st28" cx="41.7" cy="35.8" r="3.7"/>
			</g>
			<g id="XMLID_1124_">
				<g id="XMLID_1125_">
					<path class="st7" d="M41.3,38.2v-1.8h-1.8v-0.9h1.8v-1.8h0.9v1.8H44v0.9h-1.8v1.8H41.3z"/>
				</g>
			</g>
			<g id="XMLID_1044_">
				<g id="XMLID_1122_">
					<g id="XMLID_1123_">
						
							<rect x="41.2" y="20.5" transform="matrix(1 -2.273726e-03 2.273726e-03 1 -5.309714e-02 9.498888e-02)" class="st2" width="1.1" height="5.8"/>
					</g>
				</g>
				<g id="XMLID_1120_">
					<g id="XMLID_1121_">
						
							<rect x="38.2" y="22.9" transform="matrix(0.965 -0.2623 0.2623 0.965 -5.1486 11.0331)" class="st2" width="1.1" height="3.8"/>
					</g>
				</g>
				<g id="XMLID_1118_">
					<g id="XMLID_1119_">
						
							<rect x="35.9" y="25.7" transform="matrix(0.8627 -0.5057 0.5057 0.8627 -8.5171 22.1202)" class="st2" width="1.1" height="2.1"/>
					</g>
				</g>
				<g id="XMLID_1116_">
					<g id="XMLID_1117_">
						
							<rect x="33.9" y="27.7" transform="matrix(0.701 -0.7132 0.7132 0.701 -10.0332 33.0808)" class="st2" width="1.1" height="1.6"/>
					</g>
				</g>
				<g id="XMLID_1096_">
					<g id="XMLID_1108_">
						
							<rect x="48.2" y="28" transform="matrix(0.6993 -0.7148 0.7148 0.6993 -5.6954 43.5773)" class="st2" width="1.6" height="1.1"/>
					</g>
				</g>
				<g id="XMLID_1064_">
					<g id="XMLID_1068_">
						<rect x="45.9" y="26.1" transform="matrix(0.492 -0.8706 0.8706 0.492 0.5879 54.3601)" class="st2" width="2" height="1.1"/>
					</g>
				</g>
				<g id="XMLID_1059_">
					<g id="XMLID_1061_">
						
							<rect x="42.7" y="24.2" transform="matrix(0.2519 -0.9678 0.9678 0.2519 9.3651 61.6765)" class="st2" width="3.8" height="1.1"/>
					</g>
				</g>
				<g id="XMLID_1057_">
					<g id="XMLID_1058_">
						
							<rect x="38.8" y="47.9" transform="matrix(1.937798e-03 -1 1 1.937798e-03 -6.7812 90.0534)" class="st2" width="5.8" height="1.1"/>
					</g>
				</g>
				<g id="XMLID_1055_">
					<g id="XMLID_1056_">
						
							<rect x="36.9" y="46.5" transform="matrix(0.2618 -0.9651 0.9651 0.2618 -16.8182 72.1712)" class="st2" width="3.8" height="1.1"/>
					</g>
				</g>
				<g id="XMLID_1053_">
					<g id="XMLID_1054_">
						
							<rect x="35.4" y="44.6" transform="matrix(0.5061 -0.8625 0.8625 0.5061 -20.9161 53.7583)" class="st2" width="2.1" height="1.1"/>
					</g>
				</g>
				<g id="XMLID_1051_">
					<g id="XMLID_1052_">
						
							<rect x="33.7" y="42.7" transform="matrix(0.713 -0.7012 0.7012 0.713 -20.4171 36.5698)" class="st2" width="1.6" height="1.1"/>
					</g>
				</g>
				<g id="XMLID_1049_">
					<g id="XMLID_1050_">
						
							<rect x="48.4" y="42.5" transform="matrix(0.7149 -0.6992 0.6992 0.7149 -16.3227 46.557)" class="st2" width="1.1" height="1.6"/>
					</g>
				</g>
				<g id="XMLID_1047_">
					<g id="XMLID_1048_">
						
							<rect x="46.4" y="44.1" transform="matrix(0.8707 -0.4919 0.4919 0.8707 -16.1054 28.9173)" class="st2" width="1.1" height="2"/>
					</g>
				</g>
				<g id="XMLID_1045_">
					<g id="XMLID_1046_">
						
							<rect x="44.1" y="45.1" transform="matrix(0.9676 -0.2526 0.2526 0.9676 -10.4225 12.8002)" class="st2" width="1.1" height="3.8"/>
					</g>
				</g>
			</g>
		</g>
		<g>
			<g>
				<path class="st22" d="M157.1,7.3c-2.3,0.8-3,1.5-3.8,3.8c-0.8-2.3-1.5-3-3.8-3.8c2.3-0.8,3-1.5,3.8-3.8
					C154.1,5.8,154.8,6.5,157.1,7.3z"/>
			</g>
		</g>
		<g>
			<g>
				<path class="st22" d="M7.7,14.4c-1.8,0.6-2.3,1.2-2.9,2.9c-0.6-1.8-1.2-2.3-2.9-2.9c1.8-0.6,2.3-1.2,2.9-2.9
					C5.4,13.2,5.9,13.8,7.7,14.4z"/>
			</g>
		</g>
		<g>
			<g>
				<path class="st22" d="M125.1,23.4c-1.4,0.5-1.8,0.9-2.3,2.3c-0.5-1.4-0.9-1.8-2.3-2.3c1.4-0.5,1.8-0.9,2.3-2.3
					C123.4,22.5,123.8,22.9,125.1,23.4z"/>
			</g>
		</g>
		<g>
			<g>
				<path class="st22" d="M96.8,35.8c-1.4,0.5-1.8,0.9-2.3,2.3c-0.5-1.4-0.9-1.8-2.3-2.3c1.4-0.5,1.8-0.9,2.3-2.3
					C95,34.9,95.4,35.3,96.8,35.8z"/>
			</g>
		</g>
		<g>
			<g>
				<path class="st22" d="M66,45.5c-1,0.4-1.3,0.7-1.7,1.7c-0.4-1-0.7-1.3-1.7-1.7c1-0.4,1.3-0.7,1.7-1.7C64.7,44.8,65,45.1,66,45.5
					z"/>
			</g>
		</g>
		<g>
			<g>
				<path class="st22" d="M10.9,32.3c-1,0.4-1.3,0.7-1.7,1.7c-0.4-1-0.7-1.3-1.7-1.7c1-0.4,1.3-0.7,1.7-1.7
					C9.6,31.6,9.9,31.9,10.9,32.3z"/>
			</g>
		</g>
		<g>
			<g>
				<path class="st22" d="M55.7,16.7c-1.4,0.5-1.8,0.9-2.3,2.3c-0.5-1.4-0.9-1.8-2.3-2.3c1.4-0.5,1.8-0.9,2.3-2.3
					C53.9,15.8,54.3,16.2,55.7,16.7z"/>
			</g>
		</g>
		<g>
			<g>
				<path class="st22" d="M21.3,19.3c-1.4,0.5-1.8,0.9-2.3,2.3c-0.5-1.4-0.9-1.8-2.3-2.3c1.4-0.5,1.8-0.9,2.3-2.3
					C19.5,18.4,19.9,18.8,21.3,19.3z"/>
			</g>
		</g>
	</g>
	<g>
		<path class="st29" d="M90.8,64.2c-0.1,0.1-0.4,0.1-0.7,0.1c-0.8,0-1.3-0.5-1.3-1.4c0-0.8,0.6-1.4,1.4-1.4c0.3,0,0.5,0.1,0.6,0.1
			L90.7,62c-0.1-0.1-0.3-0.1-0.5-0.1c-0.6,0-1.1,0.4-1.1,1.1c0,0.7,0.4,1.1,1,1.1c0.2,0,0.4,0,0.6-0.1L90.8,64.2z"/>
		<path class="st29" d="M91.2,63.9c0.2,0.1,0.4,0.2,0.6,0.2c0.4,0,0.6-0.2,0.6-0.5s-0.1-0.4-0.5-0.5c-0.4-0.2-0.7-0.4-0.7-0.8
			c0-0.4,0.3-0.7,0.9-0.7c0.3,0,0.5,0.1,0.6,0.1L92.5,62c-0.1-0.1-0.3-0.1-0.5-0.1c-0.4,0-0.5,0.2-0.5,0.4s0.2,0.4,0.5,0.5
			c0.5,0.2,0.7,0.4,0.7,0.8s-0.3,0.8-0.9,0.8c-0.3,0-0.5-0.1-0.7-0.2L91.2,63.9z"/>
		<path class="st29" d="M93.2,63.9c0.2,0.1,0.4,0.2,0.6,0.2c0.4,0,0.6-0.2,0.6-0.5s-0.1-0.4-0.5-0.5c-0.4-0.2-0.7-0.4-0.7-0.8
			c0-0.4,0.3-0.7,0.9-0.7c0.3,0,0.5,0.1,0.6,0.1L94.5,62c-0.1-0.1-0.3-0.1-0.5-0.1c-0.4,0-0.5,0.2-0.5,0.4s0.2,0.4,0.5,0.5
			c0.5,0.2,0.7,0.4,0.7,0.8s-0.3,0.8-0.9,0.8c-0.3,0-0.5-0.1-0.7-0.2L93.2,63.9z"/>
	</g>
	<g>
		<path class="st7" d="M95.5,45.5v1.7h2v-1.7H98v4h-0.5v-1.9h-2v1.9H95v-4H95.5z"/>
		<path class="st7" d="M99.6,46h-1.2v-0.4h3V46h-1.2v3.6h-0.5V46H99.6z"/>
		<path class="st7" d="M105.3,47.8c0-0.6-0.1-1.2-0.1-1.7l0,0c-0.1,0.5-0.3,1-0.5,1.5l-0.7,2h-0.4l-0.7-1.9
			c-0.2-0.6-0.3-1.1-0.5-1.6l0,0c0,0.5,0,1.2-0.1,1.8l-0.1,1.7h-0.5l0.3-4h0.7l0.7,2c0.2,0.5,0.3,0.9,0.4,1.4l0,0
			c0.1-0.4,0.3-0.9,0.4-1.4l0.7-2h0.7l0.3,4h-0.5L105.3,47.8z"/>
		<path class="st7" d="M106.7,45.5h0.5v3.6h1.7v0.4h-2.3v-4H106.7z"/>
	</g>
	<g>
		<path class="st30" d="M75.9,39.3c0.2-0.1,0.6-0.1,1-0.1c0.5,0,0.9,0.1,1.1,0.3s0.3,0.4,0.3,0.7c0,0.4-0.3,0.7-0.7,0.9l0,0
			c0.4,0.1,0.8,0.4,0.8,1c0,0.3-0.1,0.6-0.3,0.8c-0.3,0.3-0.7,0.4-1.4,0.4c-0.4,0-0.6,0-0.8,0V39.3z M76.4,40.9h0.5
			c0.5,0,0.9-0.3,0.9-0.7c0-0.5-0.4-0.7-0.9-0.7c-0.2,0-0.4,0-0.5,0V40.9z M76.4,42.9c0.1,0,0.3,0,0.4,0c0.5,0,1-0.2,1-0.8
			c0-0.5-0.5-0.8-1-0.8h-0.4V42.9z"/>
		<path class="st30" d="M79,42.6c0.2,0.1,0.6,0.3,0.9,0.3c0.5,0,0.8-0.3,0.8-0.7s-0.2-0.6-0.8-0.8c-0.7-0.2-1.1-0.6-1.1-1.1
			c0-0.6,0.5-1.1,1.3-1.1c0.4,0,0.7,0.1,0.9,0.2l0,0.4c-0.1-0.1-0.4-0.2-0.8-0.2c-0.6,0-0.8,0.3-0.8,0.6c0,0.4,0.2,0.6,0.8,0.8
			c0.7,0.3,1,0.6,1,1.2c0,0.6-0.5,1.2-1.4,1.2c-0.4,0-0.8-0.1-1-0.3L79,42.6z"/>
		<path class="st30" d="M83.5,43.2v-1.1h-1.8v-0.3l1.7-2.5H84v2.4h0.5v0.4H84v1.1C84,43.2,83.5,43.2,83.5,43.2z M83.5,41.8v-1.3
			c0-0.2,0-0.4,0-0.6l0,0c-0.1,0.2-0.2,0.4-0.3,0.6l-1,1.3l0,0H83.5z"/>
	</g>
	<g>
		<path class="st8" d="M121.1,49.4c-0.2,0.1-0.6,0.2-1.1,0.2c-1.1,0-2-0.7-2-2s0.9-2.1,2.1-2.1c0.5,0,0.8,0.1,1,0.2l-0.1,0.4
			c-0.2-0.1-0.5-0.2-0.8-0.2c-0.9,0-1.6,0.6-1.6,1.7c0,1,0.6,1.6,1.5,1.6c0.3,0,0.6-0.1,0.9-0.2L121.1,49.4z"/>
		<path class="st8" d="M121.7,47.6c0-0.4,0-0.7,0-0.9h0.5v0.5l0,0c0.2-0.4,0.6-0.6,1-0.6c0.7,0,1.2,0.6,1.2,1.5c0,1-0.6,1.6-1.3,1.6
			c-0.4,0-0.7-0.2-0.9-0.5l0,0v1.6h-0.5C121.7,50.8,121.7,47.6,121.7,47.6z M122.3,48.4c0,0.1,0,0.1,0,0.2c0.1,0.4,0.4,0.6,0.8,0.6
			c0.6,0,0.9-0.5,0.9-1.1s-0.3-1.1-0.9-1.1c-0.4,0-0.7,0.3-0.8,0.7c0,0.1,0,0.1,0,0.2V48.4z"/>
	</g>
	<g>
		<path class="st31" d="M85.4,21.2c0.2,0,0.4-0.1,0.6-0.2c0.1-0.2,0.2-0.4,0.2-1.1v-2.4h0.5v2.6c0,0.6-0.1,0.9-0.3,1.2
			c-0.2,0.2-0.6,0.3-0.9,0.3L85.4,21.2z M86.5,16.9c-0.2,0-0.3-0.1-0.3-0.3c0-0.2,0.1-0.3,0.3-0.3s0.3,0.1,0.3,0.3
			S86.7,16.9,86.5,16.9L86.5,16.9z"/>
		<path class="st31" d="M90.3,20.7c-0.5-0.2-1-0.4-1-0.4c-1,0-1.8-0.7-1.8-2s0.8-2.2,1.9-2.1c1.1,0.1,1.5,0.9,1.5,2
			c0,1-0.2,1.7-0.9,1.9l0,0c0.4,0.1,0.5,0.2,0.8,0.3L90.3,20.7z M89.2,20c0.8,0,1.3-0.8,1.3-1.7c0-0.8-0.4-1.6-1.3-1.6
			s-1.3,0.8-1.3,1.7C87.9,19.2,88.4,20,89.2,20L89.2,20z"/>
		<path class="st31" d="M94,19.7c0,0.3,0,0.1,0,0.3l-0.3,0.3v-0.5l0,0c-0.1,0.2-0.4,0.5-1,0.5c-0.5,0-1-0.3-1-1.3v-1.7h0.5V19
			c0,0.6,0.2,0.9,0.6,0.9s0.6-0.2,0.7-0.5c0-0.1,0-0.2,0-0.3v-1.8H94v2.2L94,19.7z"/>
		<path class="st31" d="M95.4,19c0,0.7,0.5,1,1,1c0.4,0,0.6-0.1,0.8-0.1l0.1,0.4c-0.2,0.1-0.5,0.2-1,0.2c-0.9,0-1.4-0.6-1.4-1.5
			s0.5-1.6,1.4-1.6s1.2,0.8,1.2,1.4c0,0.1,0,0.2,0,0.2H95.4z M96.9,18.6c0-0.3-0.1-0.8-0.7-0.8c-0.5,0-0.8,0.4-0.8,0.8H96.9z"/>
		<path class="st31" d="M98.1,18.3c0-0.3,0-0.6,0-0.9h0.5V18l0,0c0.1-0.4,0.5-0.6,0.8-0.6c0.1,0,0.1,0,0.1,0v0.5c-0.1,0-0.1,0-0.2,0
			c-0.4,0-0.6,0.3-0.7,0.7c0,0.1,0,0.2,0,0.2v1.6h-0.5C98.1,20.4,98.1,18.3,98.1,18.3z"/>
		<path class="st31" d="M100.4,17.4l0.6,1.7c0.1,0.2,0.1,0.4,0.2,0.6l0,0c0.1-0.2,0.1-0.4,0.2-0.6l0.6-1.7h0.6l-0.8,2.1
			c-0.4,1-0.6,1.5-1,1.8c-0.3,0.2-0.5,0.3-0.6,0.3l-0.1-0.4c0.1,0,0.3-0.1,0.5-0.3c0.1-0.1,0.3-0.3,0.4-0.6c0-0.1,0-0.1,0-0.1v-0.1
			l-1.1-2.7C99.9,17.4,100.4,17.4,100.4,17.4z"/>
	</g>
</g>
</svg>
